<?xml version="1.0" encoding="UTF-8"?> <!-- Generator: Adobe Illustrator 21.0.2, SVG Export Plug-In . SVG Version: 6.00 Build 0) --> <svg xmlns="http://www.w3.org/2000/svg" xmlns:xlink="http://www.w3.org/1999/xlink" id="Layer_1" x="0px" y="0px" viewBox="0 0 205 144" style="enable-background:new 0 0 205 144;" xml:space="preserve"> <style type="text/css"> .st0{fill:#00C2EF;} .st1{fill:#42445D;} .st2{fill:#EEEEEE;} .st3{fill:#035F7F;} .st4{fill:url(#SVGID_1_);} .st5{fill:#01405C;} .st6{fill:url(#SVGID_2_);} .st7{fill:#FFFFFF;} .st8{fill:url(#SVGID_3_);} .st9{fill:#333242;} .st10{fill-rule:evenodd;clip-rule:evenodd;fill:#FFC3AB;} .st11{fill-rule:evenodd;clip-rule:evenodd;fill:#FFCAB8;} .st12{fill-rule:evenodd;clip-rule:evenodd;fill:#42445D;} .st13{fill-rule:evenodd;clip-rule:evenodd;fill:#333242;} .st14{fill-rule:evenodd;clip-rule:evenodd;fill:#00CDC4;} .st15{fill-rule:evenodd;clip-rule:evenodd;fill:#00A397;} .st16{fill:#FFC3AB;} .st17{fill:url(#SVGID_4_);} .st18{fill:#00CDC4;} .st19{fill:#00A397;} .st20{fill:#FFCAB8;} .st21{fill-rule:evenodd;clip-rule:evenodd;fill:#FFFFFF;} .st22{fill-rule:evenodd;clip-rule:evenodd;fill:#EEEEEE;} .st23{fill:url(#SVGID_5_);} .st24{fill:#D0AECF;} </style> <g> <g> <circle class="st0" cx="105.1" cy="24.2" r="2.8"></circle> <rect x="104.5" y="4.1" class="st1" width="1.2" height="11.1"></rect> <polygon class="st1" points="101.8,14.4 88.3,24.2 121.9,24.2 108.4,14.4 "></polygon> <rect x="89.2" y="0.2" class="st2" width="31.8" height="3.9"></rect> </g> <g> <path class="st1" d="M202.5,116.7c-3.2-2.1-8.7-2.5-11.7,0.7c-1.5,0.2-2.9,0.8-4.3,1.4c1-0.7,2.1-1.6,2.4-2.9c0.3-1.6-1-1.7-1.9-1 c-1,0.7-0.8,1.3-1.1,2.4c-0.2,1-0.6,1.7-0.7,2.1c-0.4,0.2-0.9,0.4-1.3,0.6c-0.7,0.3-1.4,0.6-2,0.9c0.2-0.2,0.5-0.5,0.6-0.6 c0.9-1.1,2.2-2.4,2.5-3.9c0.3-1.6-0.9-2.7-2.2-2c-1.1,0.6-0.7,2.3-0.7,3.5c0,1.5-0.4,2.2-0.6,3.2c-1.1,0.5-2.3,1-3.5,1.4 c1.1-1,2.2-2.3,2.6-3.4c0.7-1.8-1.2-2.2-2.4-1.7c-1.3,0.5-1.3,2-1.5,3.3c-0.2,1-0.5,2-0.7,2.6c-0.6,0.2-1.2,0.4-1.8,0.7 c-0.5,0.2-0.9,0.3-1.4,0.5c0.8-0.9,1.5-2,1.8-3.1c0.2-0.6,0.5-1.8,0-2.3c-0.6-0.7-1.6,0-2,0.5c-1,1.4-0.7,3.9-1.3,5.3 c-1.2,0.4-2.4,0.7-3.6,1.1c1-0.8,2-2,2.5-2.8c0.4-0.7,0.6-1.7,0.2-2.4c-0.5-0.7-1.6-0.6-2.1,0.1c-0.6,0.7-0.8,1.6-1.1,2.5 c-0.3,1-0.9,2.1-1.1,3c-0.6,0.1-1.2,0.3-1.7,0.4c-0.1,0-0.2,0-0.3,0.1c0.3-0.3,0.5-0.6,0.6-0.8c0.5-0.6,1-1.4,1-2.3 c0-0.9-0.6-1.8-1.4-1.7c-0.6,0.1-1,0.8-1.1,1.6c-0.1,0.7-0.1,1.5-0.2,2.2c-0.1,0.5-0.3,0.9-0.4,1.3c-1.3,0.2-2.6,0.4-3.9,0.6 c0.7-0.7,1.6-2.2,1.7-2.5c0.2-0.6,0.4-1.4,0.2-2c-0.2-0.7-0.8-1.2-1.4-1.1c-0.6,0.2-0.9,0.9-1,1.7c0,0.5-0.5,3.3-0.4,4.1 c-1.3,0.2-2.6,0.3-3.8,0.5c-0.5,0.1-0.5,0.8,0,0.9c1.7,0.1,3.4,0,5.1-0.2c0.3,0.4,0.7,0.8,0.9,1.2c0.1,0.3,0.3,0.7,0.4,1h2.7 c0,0,0,0,0,0c-0.7-1-1.7-1.9-2.8-2.3c1.1-0.2,2.1-0.4,3.2-0.6c0.1,0,0.2,0.1,0.3,0.1c0.5,0.2,1,0.5,1.3,0.9 c0.3,0.4,0.5,0.8,0.7,1.2c0.1,0.2,0.3,0.5,0.4,0.7h3.5c-0.1-0.2-0.2-0.4-0.3-0.6c-0.8-1.1-2-1.8-3.3-2.2c-0.5-0.2-1.1-0.3-1.7-0.3 c1.3-0.3,2.7-0.6,4-1c0.5,0.3,0.9,0.7,1.2,1.1c0.5,0.6,0.9,1.2,1.4,1.8c0.3,0.4,0.6,0.8,1,1.1h4.2c0.1-0.1,0.1-0.3,0.1-0.4 c0.1-0.5-0.3-1-0.6-1.4c-1-1.1-2.3-1.8-3.6-2.3c-0.4-0.1-1.2-0.4-2-0.5c1.2-0.4,2.4-0.7,3.6-1.2c1.3,0.4,2.6,1,3.7,2 c0.6,0.6,1.2,1.3,1.8,1.8c0.6,0.6,1.4,1,2.2,1c0.6,0,1.3-0.4,1.4-1.1c0-0.2,0-0.5-0.1-0.7c-0.4-1.5-1.8-2.4-3.1-2.7 c-1.4-0.4-3.3-0.9-4.9-0.7c1.5-0.6,3-1.1,4.5-1.8c0.8,0.3,1.6,1,2.3,1.6c1.2,1,2.3,2.3,3.6,3.1c0.8,0.5,1.8,0.9,2.7,0.6 c0.1,0,0.3-0.1,0.4-0.2c0.2-0.2,0.2-0.6,0.1-0.9c-0.2-0.8-0.7-1.4-1.2-1.9c-1.3-1.3-3-2-4.8-2.3c-0.8-0.1-1.7-0.2-2.6-0.2 c1.4-0.6,2.9-1.3,4.3-1.9c0.1,0,0.2-0.1,0.3-0.1c0.7,0.8,1.5,1.5,2.3,2.3c0.7,0.7,1.6,1.5,2.6,1.5c0.3,0,0.6-0.1,0.9-0.3 c0.4-0.4,0.4-1.1,0.2-1.7c-0.2-0.6-0.6-1-1.1-1.3c-0.6-0.4-1.9-1-3.1-1.3c0.8-0.4,1.6-0.8,2.5-1.2c0,0,0,0,0,0.1 c1.2,1,2.2,2.4,3.4,3.2c1,0.7,2.2,0.9,3.3,0.7c0.3-0.1,0.7-0.3,0.8-0.6c0.1-0.3-0.1-0.6-0.3-0.8c-0.9-1.3-2.1-2.1-3.5-2.5 c-0.5-0.1-1.7-0.5-2.6-0.5c1.4-0.5,2.9-0.9,4.4-1c0,0,0,0,0.1,0c0.9,0.1,1.7,0.3,2.6,0.6c1,0.4,2,0.9,3.1,1.3c1,0.3,2.2,0.4,3.2,0 c0.7-0.3,1.4-1.2,1.1-2C203.1,117.2,202.8,116.9,202.5,116.7z"></path> <path class="st3" d="M140.9,128.7c-0.1,0.7,0,1.7,0.3,2.6h19c22-13.2,4.7-36.4,34.2-53.6C176.9,74.3,141.7,123,140.9,128.7z"></path> <linearGradient id="SVGID_1_" gradientUnits="userSpaceOnUse" x1="151.6266" y1="114.8951" x2="189.3198" y2="114.8951"> <stop offset="0" style="stop-color:#00A6D2"></stop> <stop offset="1" style="stop-color:#00BCE8"></stop> </linearGradient> <path class="st4" d="M183.7,100.1c-1,0.7-1.6,2.3-2.8,2.6c-0.9,0.2-1.8-0.2-2.9,0.3c-1,0.5-1.9,1.3-2.6,2.1 c-1.5,1.6-2.1,3.5-3.1,5.3c-1,1.7-3.1,1.9-4.9,2.8c-2.6,1.3-4.8,3.3-6.5,5.7c-1,1.3-1.8,3.7-3,4.5c-0.9,0.6-2.2,0.6-3.2,1.3 c-1.1,0.8-1.9,2-2.5,3.2c-0.8,1.5-0.6,2.7,0.2,3.6h7.6c2.1-0.8,4.1-1.8,5.2-3.2c0.9-1.1,0.5-1.4,1.7-1.8c2.1-0.7,3.9-0.5,5.6-2.2 c1.3-1.3,2.4-3.1,3-4.8c0.4-1.2,0.1-1.9,1.1-2.8c1.6-1.3,3.4-1.6,4.8-3.3c1-1.1,1.6-2.6,2.2-4c0.4-0.9,0.2-1.7,0.4-2.5 c0.4-1.5,2.2-2,3.2-3.3c1.1-1.4,1.7-3.3,2.3-4.9C187.6,97.9,185.1,99.1,183.7,100.1z"></path> <path class="st5" d="M142.8,108.4c-0.5-2.4-1.1-5.4-2.7-7.4c-0.2,1.2-0.5,2.4-0.7,3.6c-0.1,0.8,0,1.7-0.1,2.5 c-0.8-3.1-1.8-5.7-3.4-8.5c-1.3-2.3-2.5-5.5-4.5-7.3c-0.4,2.6-0.2,5.8,0.2,8.4c0.5,3.7,1,7.3,1.5,11c0.7,5.5,2.2,10.7,3.9,16 c0.3,1.1,0.7,2.9,1.2,4.6h5.9c0.1-0.6,0.1-1.2,0.2-1.7c0.6-3.7,0.8-7.7,0.3-11.4C144,115,143.6,111.7,142.8,108.4z"></path> <path class="st5" d="M178,61.4c-4.8-2.2-4,7-8.9,12.8c-0.8,0.7-1.6,1.4-2.3,2.2c0.6-1.7,0.9-4.2,0.2-4.9c-1.8-1.8-2,1.8-2,2.7 c0,1.2,0.4,2.5,0.7,3.3c-1,1.1-2,2.2-3,3.4c0.1-0.4,0.3-0.8,0.4-1c0.8-2,1.9-6.3-0.7-6.7c-3.3-0.5-1.3,7.1-1.1,9.5 c-0.1,0.1-1.5,1.9-2,2.7c0.6-2.6,0.9-7.3-1.3-7.7c-4.8-0.9,0.4,5.8,0.5,8.7c-1,1.4-2.4,3.7-3.3,5.2c0.4-1.5,0.6-3.1,0.2-4.5 c-0.4-1.9-2.1-3.7-3-1.3c-0.5,1.4,0.4,2.9,0.9,4.3c0.4,1.2,0.7,2.4,0.8,3.3c-0.7,1.4-1.4,2.8-2.1,4.2c0.3-2.2,0.4-4.5-0.6-6.3 c-1.8-3.4-4.7-1-4.7,1.8c-0.1,2.9,3,4.9,4.2,7c-0.5,1.3-1,2.6-1.4,4c-0.3-2.3-0.6-4.9-2.2-6.6c-1.5-1.8-5-2.1-4.9,0.7 c0.1,3.4,5.2,4.3,6.9,6.6c-0.6,1.8-1.1,3.6-1.5,5.5c-0.3-1.8-1-3.7-1.7-4.9c-1.3-2.3-4-1.4-4.3,1c-0.4,3.4,3.8,4.4,5.5,6.2 c-0.2,1-0.4,2-0.6,3c-0.2,1.2-0.5,2.8-0.7,3.9c-0.5-2-1.4-4.5-2.5-5.4c-2.2-2-4.7-0.1-3.4,2.6c1.2,2.5,4.2,2.8,5.5,4.9 c-0.3,1.6-0.7,3.2-1.1,4.8c-0.9-3-3.4-6.1-5.8-6.6c-2.7-0.6-4,1.5-2.4,3.6c1.2,1.6,5.9,2.8,7.8,4.7c-0.3,1.2-0.7,2.3-1.1,3.4h1.9 c0.1-0.4,0.3-0.7,0.4-1.1c0.4-1.7,1.9-1.8,3.3-2.2c1.6-0.4,8.8,3,7.5-3.1c-1.2-5.2-7.3-0.3-9.9,2.4c0.3-1.1,0.6-2.3,0.8-3.4 c0.5-0.9,1.2-1.7,2.9-2.4c2.5-1,12.2,0.5,11.4-4.4c-1.4-7.6-12.3,2.8-14.1,5.9c0.4-2,1.2-6.7,1.3-7.1c0.9-0.9,1.9-1.7,3.4-2.1 c1.6-0.4,6.7-1.3,5.9-4.1c-0.8-2.9-4.9-0.4-5.7,0.6c-1.2,1.3-2.4,2.6-3.3,4.2c0.4-2.1,0.9-4.1,1.4-6.2c4.9-3.5,13.8-2,12-6.4 c-2.1-5-7.3,3.4-11.8,5.6c0.6-2.2,1.3-4.4,2.1-6.6c0.6-0.2,1.4-0.7,2.5-1c2.4-0.7,7.1,0,7.7-2.6c0.9-3.6-2.4-3.6-4.6-2.6 c-2.4,1.1-3.7,3.1-5.2,5c0,0,0-0.1,0-0.1c0.9-2.3,2-4.5,3.2-6.7c3.2-1.1,11.4,0.9,9.8-3.8c-1.3-3.7-7.2,1-9.4,3.3 c1.2-2.1,2.4-4.2,3.8-6.2c0.4,0.2,1.1-0.3,2.6-0.2c2.1,0,6.1,0.7,6.8-2c0.5-1.9-2.7-2.1-4.2-1.7c-1.7,0.5-3.1,2.1-4.5,3 c0.3-0.4,3.2-4.3,4.4-5.7c3.3-0.7,12.3-0.7,11.4-4c-1.1-3.7-7.5,0.8-10.6,3.1c0.4-0.5,3.7-4.2,4.6-5c3.4-0.9,6.5-2.6,8.2-3.9 C180.7,68.4,183.7,64,178,61.4z"></path> </g> <g> <linearGradient id="SVGID_2_" gradientUnits="userSpaceOnUse" x1="55.0073" y1="81.9296" x2="155.1796" y2="81.9296"> <stop offset="0" style="stop-color:#00A6D2"></stop> <stop offset="1" style="stop-color:#00BCE8"></stop> </linearGradient> <path class="st6" d="M142.3,31.8H67.9c-7.1,0-12.9,5.8-12.9,12.9v74.4c0,7.1,5.8,12.9,12.9,12.9h74.4c7.1,0,12.9-5.8,12.9-12.9 V44.7C155.2,37.6,149.4,31.8,142.3,31.8z"></path> <polygon class="st0" points="105.9,37 104.4,37 104.4,82.7 149.9,82.7 149.9,81.2 105.9,81.2 "></polygon> <path class="st0" d="M140.9,36.1H69.3c-5.6,0-10.1,4.5-10.1,10.1v71.6c0,5.6,4.5,10.1,10.1,10.1h71.6c5.6,0,10.1-4.5,10.1-10.1 V46.1C150.9,40.6,146.4,36.1,140.9,36.1z M149.4,117.3c0,5-4,9-9,9H69.7c-5,0-9-4-9-9V46.6c0-5,4-9,9-9h70.7c5,0,9,4,9,9V117.3z"></path> <path class="st0" d="M145.1,62.7c0.5,1.1,1,2.2,1.4,3.2l1.4-0.5c-0.4-1.1-0.9-2.3-1.4-3.4L145.1,62.7z"></path> <path class="st0" d="M148,70.4c0.3,1.1,0.6,2.3,0.8,3.4l1.5-0.3c-0.2-1.2-0.5-2.4-0.8-3.6L148,70.4z"></path> <path class="st0" d="M149.3,78.5c0.1,1,0.1,1.9,0.1,2.9l1.5,0c0-1,0-2-0.1-3L149.3,78.5z"></path> <path class="st0" d="M136.4,48.3l-1,1.1c0.9,0.8,1.7,1.6,2.5,2.5l1.1-1C138.2,50,137.3,49.1,136.4,48.3z"></path> <path class="st0" d="M105.4,37.4c1.2,0,2.4,0.1,3.5,0.2l0.1-1.5c-1.2-0.1-2.4-0.2-3.7-0.2V37.4z"></path> <path class="st0" d="M121.5,40.6c1.1,0.4,2.2,0.9,3.2,1.4l0.7-1.3c-1.1-0.5-2.2-1-3.3-1.5L121.5,40.6z"></path> <path class="st0" d="M113.6,38.2c1.1,0.2,2.3,0.5,3.4,0.8l0.4-1.4c-1.2-0.3-2.4-0.6-3.6-0.8L113.6,38.2z"></path> <path class="st0" d="M128.9,44.3c1,0.6,2,1.3,2.9,2l0.9-1.2c-1-0.7-2-1.4-3-2.1L128.9,44.3z"></path> <path class="st0" d="M140.9,55.6c0.7,0.9,1.4,1.9,2,2.9l1.3-0.8c-0.6-1-1.3-2-2-3L140.9,55.6z"></path> <path class="st0" d="M105.1,126.1c-24.5,0-44.3-19.9-44.3-44.3c0-24.4,19.7-44.2,44-44.3v-1.5c-25.1,0.2-45.5,20.7-45.5,45.8 c0,25.3,20.6,45.8,45.8,45.8c25.2,0,45.7-20.4,45.8-45.5h-1.5C149.3,106.4,129.4,126.1,105.1,126.1z"></path> <g> <path class="st0" d="M96.8,43.4l-29.7,77.1h18.4l6-15.1h27.5l5.7,15.1h18.4l-29.6-77.1H96.8z M98,88.1l7.2-18.4l7.1,18.4H98z"></path> <path class="st3" d="M98,45.2l-28.3,73.4h14.5l6-15.1h30l5.7,15.1h14.5l-28.2-73.4H98z M95.4,89.9l9.9-25.2l9.8,25.2H95.4z"></path> <polygon class="st5" points="95.1,61.1 108,48.2 100.1,48.2 "></polygon> <path class="st7" d="M111.1,71.5l2,5c1.9-1.9,3.9-3.9,5.8-5.8l-1.9-5L111.1,71.5z"></path> <path class="st7" d="M91.8,90.7l-13.2,13.2l-4.4,11.4c4.5-4.5,22.4-22.4,22.4-22.4H91L91.8,90.7z"></path> <polygon class="st5" points="115.1,81.9 119.4,92.9 104.1,92.9 96.5,100.5 122.3,100.5 128,115.7 136.1,115.7 120.9,76.1 "></polygon> </g> </g> <g> <path class="st0" d="M32.8,105.7c-9-7.6-11.9-13.7-14.2-16.1c3.2,18.2,20,48.1,29.4,41.1C54.8,125.6,45.2,116.2,32.8,105.7z"></path> <path class="st1" d="M51.1,106.7c0-3.9-1.3-21.7-6.1-32.4c2.7,18.6-4.6,17.3-4.7,39.2c0,6.6,4.1,17.6,7.8,18.2 c3.6,0.5,4.3-4.1,5-5.6c1.9-4.1,4.5-33.1,3.3-35.9C53.4,94.9,51.6,105.8,51.1,106.7z"></path> <path class="st1" d="M49.9,131.3c0,1.2,16.1,2.3,23.3-10.1c5.6-9.6,9.2-10.6,12.3-12.3C64.3,108.9,50,128.2,49.9,131.3z"></path> <path class="st0" d="M58.9,103.3c-1.3,1.4-1.4,3.3-2.4,4.7c-1,1.5-2.5,2.1-2.9,4.3c-0.2,1,0,1.9-0.3,2.8c-0.3,1.1-0.9,2.1-1.1,3.4 c-0.1,0.9,0,1.7-0.1,2.6c-0.3,2.3-4.5,5.6-1.8,8.1c-0.4,1.9-0.2,2.7,0.8,2.8c2.1,0.4,2.4-1.8,3-3c0.7-1.3,2.4-2,2.8-3.9 c0.2-1-0.2-2.2,0-3.1c0.2-0.7,0.9-0.9,1.3-1.5c1.1-1.3,1.4-3,1.5-4.7c0.1-1-0.5-2.7-0.2-3.5c0.5-1.7,2.3-1.9,2.1-4.4 c-0.1-0.8-0.6-1.7-0.4-2.5c0.1-0.7,0.7-1.2,1.1-1.9c1-1.8,0.5-3.9,0.7-5.9C61.4,99.4,60.4,101.6,58.9,103.3z"></path> <linearGradient id="SVGID_3_" gradientUnits="userSpaceOnUse" x1="36.4847" y1="72.1494" x2="36.4847" y2="122.905"> <stop offset="0" style="stop-color:#00CDC4"></stop> <stop offset="1" style="stop-color:#EFF6FF"></stop> </linearGradient> <path class="st8" d="M48.8,120.3c-2.1,0.1-4.5,2.3-5.7,4.6c-0.1-1.4-0.1-2.7-0.2-4.1c1.4-1.5,3.9-1.3,5.2-3.2 c1.4-2-0.3-3.9-2.4-2.6c-1,0.6-2.1,2.5-2.8,4.1c0-1,0-2.3,0-3.3c0-0.8,0-1.7,0-2.5c1.6-1.2,5.2-1.4,5.3-4.2c0.1-2-2-3.2-3.4-1.4 c-0.7,0.9-1.5,2.3-2.1,3.7c-0.1-1.6-0.2-3.1-0.4-4.7c1.7-1.6,6-1.6,6.6-4.3c0.5-2.3-2.4-2.6-3.9-1.3c-1.5,1.2-2.1,3.2-2.7,5.1 c-0.2-1.2-0.4-2.3-0.6-3.4c1.3-1.5,4.1-2.7,4.5-5.1c0.4-2.3-1.6-4.6-3.6-2.1c-1,1.3-1.3,3.2-1.4,5c-0.3-1.3-0.7-2.5-1.1-3.7 c0.3-0.7,0.6-1.6,1.2-2.6c0.6-1.1,1.5-2.1,1.3-3.4c-0.4-2.2-2-0.9-2.6,0.6c-0.5,1.1-0.5,2.4-0.4,3.7c-0.5-1.4-1.3-3.4-1.9-4.7 c0.5-2.3,5.7-7.1,1.7-7c-1.9,0-2.3,3.8-2.2,6.1c-0.4-0.7-1.2-2.4-1.3-2.5c0.5-1.9,3.2-7.8,0.5-7.9c-2.2-0.1-1.9,3.6-1.5,5.3 c0,0.2,0.1,0.6,0.1,0.9c-0.6-1.1-1.3-2.1-2-3.2c0.4-0.6,0.8-1.7,1-2.6c0.2-0.7,0.5-3.6-1.2-2.5c-0.7,0.4-0.8,2.5-0.6,4 c-0.5-0.7-1-1.4-1.6-2.1c-3.1-5.4-1.1-12.8-5.4-11.7c-5.1,1.3-3.2,5.4-1.9,6.8c1.2,1.3,3.4,3.1,6.1,4.4c0.6,0.8,2.7,4.2,3,4.7 c-2.3-2.4-6.8-7-8.2-4.1c-1.3,2.5,6.1,3.8,8.7,4.9c0.8,1.4,2.6,4.9,2.8,5.3c-1-1-1.9-2.5-3.2-3.1c-1.2-0.5-3.8-0.9-3.7,0.8 c0.2,2.3,3.6,2.4,5.3,2.6c1.2,0.2,1.8,0.7,2.1,0.6c0.8,1.8,1.6,3.7,2.2,5.6c-1.5-2.2-5.6-6.9-7.2-4c-2.1,3.6,4.9,3.1,7.4,4.5 c0.6,1.9,1.2,3.9,1.6,5.9c0,0,0,0,0,0.1c-1-1.8-1.8-3.6-3.5-4.9c-1.6-1.2-4.3-1.6-4.1,1.5c0.2,2.2,4.1,2.3,5.9,3.2 c0.8,0.4,1.5,1,1.9,1.2c0.4,1.9,0.6,3.8,0.8,5.7c-3.3-2.4-6.3-10.1-8.8-6.3c-2.2,3.3,5.3,3.4,8.8,6.9c0.1,1.7,0.2,3.5,0.2,5.2 c-0.5-1.4-1.3-2.6-2.1-3.9c-0.6-0.9-3.5-3.6-4.6-1.3c-1.1,2.2,3,3.7,4.2,4.2c1.2,0.5,1.9,1.3,2.5,2.2c0,0.3,0,4.3,0,6 c-1-2.8-8.4-12.9-10.7-6.9c-1.4,3.9,6.7,4.1,8.6,5.3c1.3,0.8,1.8,1.6,2.1,2.4c0,1,0.1,1.9,0.1,2.9c-1.8-2.6-6-7.4-7.7-3.4 c-2,4.8,4.4,3.1,5.6,3.6c1.1,0.5,2.3,0.8,2.4,2.3c0.2,1.1,0.4,2.3,0.7,3.4c0.2,0.8,1.5,0.4,1.3-0.4c-0.3-1.6-0.5-3.1-0.6-4.7 c1.8-1.2,5.9-1.6,7-2.7C51.9,122.1,51.1,120.2,48.8,120.3z"></path> </g> <g> <path class="st1" d="M13,73.5H5.5c0.2,1.4-1.3,3-2.1,4.1c-0.7,1.1-0.9,5.3,5.7,5.3c6.7,0,6.4-4,5.9-5.3 C14.5,76.4,12.8,74.9,13,73.5z"></path> <path class="st9" d="M13,73.5h-1.2c1.5,2.8-0.1,6.4-0.1,6.4s-0.8-1.8-1.1-1.5c-1.3,1.8-3.7,3-5.9,1.6c-1-0.7-1.1-1.9-1-2.9 c-0.1,0.1-0.2,0.3-0.3,0.4c-0.7,1.1-0.9,5.3,5.7,5.3c6.7,0,6.4-4,5.9-5.3C14.5,76.4,12.8,74.9,13,73.5z"></path> <path class="st10" d="M12.3,133.4c-0.1-0.4-0.4-0.7-0.7-1.7c-0.8-2.9,0-5.2-0.8-9c-0.1-0.7-0.5-1.4-0.5-2.3c0-0.8,0.2-1.4,0.1-2.1 c0-0.6-0.2-1.2-0.3-1.9c-0.3-3.6-0.2-8-0.1-11.5L4.3,102c0.1,3.6,1.5,12.5,1.5,12.9c0.6,3.3,0.4,3.9,0.8,6.7 c0.4,3,2.3,7.7,3.1,10.8c0.3,1.1,0.6,6,0.5,6.9c0,0.6-0.4,1.4,0.4,1.4c0.6,0,2.4-0.7,2.6-1.5c0.2-0.8-0.5-2.2-0.7-3.6 C12.3,134.6,12.5,133.9,12.3,133.4z"></path> <path class="st11" d="M8.4,122.7c-0.9-2.9-1.6-5.9-0.9-9c0.8-3.2,0.2-6.5,0.8-9.7l-4-2c0.1,3.6,1.5,12.5,1.5,12.9 c0.6,3.3,0.4,3.9,0.8,6.7c0.4,3,2.3,7.7,3.1,10.8c0.3,1.1,0.6,6,0.5,6.9c0,0.6-0.4,1.4,0.4,1.4c0.3,0,0.9-0.2,1.5-0.5 c-0.1-2.7-1.5-5.4-1.6-8C10.3,128.8,9.4,126,8.4,122.7z"></path> <path class="st12" d="M12.7,136.8c-0.1,0.6-0.2,1.3-0.6,1.8c-0.6,0.8-1.7,0.5-1.9-0.1c0,0.4,0,0.7,0,0.9c0,0.6-0.4,1.4,0.4,1.4 c0.6,0,2.4-0.7,2.6-1.5C13.4,138.7,13,137.8,12.7,136.8C12.7,136.8,12.7,136.8,12.7,136.8z"></path> <path class="st13" d="M12.7,136.8c-0.1,0.6-0.2,1.3-0.6,1.8c-0.1,0.1-0.1,0.1-0.2,0.2c0,0.1,0,0.1,0,0.2c-0.3,1.1-1.5,1.5-1.8,1.4 c0,0.2,0.1,0.4,0.5,0.4c0.6,0,2.4-0.7,2.6-1.5C13.4,138.7,13,137.8,12.7,136.8C12.7,136.8,12.7,136.8,12.7,136.8z"></path> <path class="st11" d="M11.9,80.8c-1.7,0.5-1.3-1.4-1.6-3.1L8,78.5c0.3,1.6,0.5,2.7-0.8,3.2c-0.7,0.3-1.9,0.6-2.6,0.8 c-1.1,0.3-1.6,7.6-1.8,9.7l2,0.8c0.4-1.5,1.2-3.3,1.2-5.2l9.5-4.5C15,80.6,14,80.2,11.9,80.8z"></path> <path class="st11" d="M13.2,83.3c0,0,2.9,6.7,4,8l1.6-1.5c-0.5-1.2-1.5-5.3-2.9-7.6L13.2,83.3z"></path> <path class="st10" d="M16.9,89.9c-0.7-1.3-0.5-3.2-0.4-3.5c0.2-0.4,0.7-1.4,0.6-1.9c-0.4-1.3-2.2-0.8-2.5-1.7c0,0,0-0.1,0-0.1 l-1.3,0.6c0,0,2.9,6.7,4,8l0.9-0.8C17.9,90.4,17,90.2,16.9,89.9z"></path> <path class="st11" d="M29.8,91c-0.8-0.1-0.1-0.6-0.7-0.6c-0.7,0-1.3,0.2-1.9,0.7c-0.6,0.5-5.9-1.1-8.4-1.8c-0.9-0.2-2.1,1.6-1.6,2 c2.6,2,7.4,1.4,9.3,1.6c1.4,0.1,2.3,0,2.8,0.1c0.5,0.1,0.8-0.1,0.8-0.5c0.3,0,0.5-0.2,0.5-0.5c0.3,0,0.4-0.3,0.3-0.5 c0.5,0,0.9,0,0.8-0.4C31.6,91,30.3,91,29.8,91z"></path> <path class="st10" d="M29.8,91c-0.1,0-0.2,0-0.4,0.1c-0.4,0.1-0.8,0.3-1.1,0.5c-0.5,0.4-1.1,0.9-1.5,0.8c-1.3-0.1-3.1-0.6-4.4-0.7 c-1.3-0.1-2.5-0.6-3.7-1c-0.1,0-1.1-0.4-1.4-0.5c-0.3,0.3-0.6,0.8-0.2,1.1c2.6,2,7.4,1.4,9.3,1.6C27.1,93,29,93,29.4,93 c0.5,0.1,0.8-0.1,0.8-0.5c0.3,0,0.5-0.2,0.5-0.5c0.3,0,0.4-0.3,0.3-0.5c0.5,0,0.9,0,0.8-0.4C31.6,91,30.3,91,29.8,91z"></path> <path class="st11" d="M27.9,90.7l0.9,0.3c0.3,0,0.5-0.2,0.8-0.5c0.5,0,0.8-0.3,0.9-0.6c-0.6,0.2-1,0.2-1.2,0.2L27.9,90.7z"></path> <path class="st10" d="M11.9,80.8c-1.7,0.5-1.3-1.4-1.6-3.1L8,78.5c0.1,0.3,0.1,0.6,0.2,0.9c0.6,1,1.9,2.4,3,2.3 c0.6-0.1,1.1-0.8,1.8-0.8c0.5-0.1,1,0,1.5,0.1C13.9,80.4,13,80.5,11.9,80.8z"></path> <path class="st10" d="M5,88C5,88.4,5,88.8,5,89.2c0,1.2-0.6,2.5-0.9,3.6L4.9,93C5.2,91.7,6,90.3,6,88.9C5.7,88.8,5.1,88.1,5,88z"></path> <path class="st11" d="M10.6,71.6c-0.5-0.3-1.2-0.4-2-0.3c-2,0.3-2.5,1.9-2.5,3.5c0,0.1,0,0.2,0,0.3v0c0,0.4,0,0.8,0.1,1.2 c0.1,0.5,0.2,1,0.4,1.5c0.2,0.4,1.5,2,2.5,2c1,0,2.4-1.7,2.6-2.2c0.2-0.4,0.3-0.8,0.3-1.4c0-0.3,0.1-0.5,0.1-0.8 c0-0.1,0-0.1,0-0.2c0,0,0-0.1,0-0.2c0-0.1,0-0.1,0-0.2C12.1,73.5,11.7,72.2,10.6,71.6z"></path> <path class="st11" d="M10.2,99.8c-1.8,3.8-1.4,6.2-1.4,11.3c0,3.4,0,4.3-0.2,6.6c-0.1,0.7-0.3,1.3-0.3,1.9c0,0.6,0.1,1.3,0.1,2.1 c0.1,0.9-0.3,1.5-0.5,2.3c-0.8,3.8,0.1,6.5-0.8,9.4c-0.3,0.9-0.6,0.9-0.7,1.3c-0.2,0.5,0,1.2-0.2,2.3c-0.3,1.4-1,2.9-0.7,3.6 c0.2,0.5,1.4,1.9,2,1.9c0.7,0,0.7-1.3,0.7-1.9c0.1-0.5,0.1-4.5,0.2-4.8c0.1-1.2,3.2-9.6,3.5-12.6c0.4-2.8,0.2-4.1,0.8-7.5 c0.9-4.5,1.5-8.5,1.7-12.5L14,99.8L10.2,99.8z"></path> <path class="st12" d="M7.7,140.6c-1.3,0-1.7-2.3-1.7-2.5c-0.3,1-0.6,1.9-0.4,2.5c0.2,0.5,1.4,1.9,2,1.9c0.7,0,0.7-1.3,0.7-1.9 c0-0.1,0-0.3,0-0.5C8.2,140.3,8,140.6,7.7,140.6z"></path> <path class="st13" d="M7.7,140.6c-0.2,0-0.3,0-0.4-0.1c0,0.1,0,0.3,0,0.5c-0.1,0.4-0.5,0.6-0.9,0.5c-0.1,0-0.2-0.1-0.4-0.1 c0.5,0.6,1.1,1.1,1.5,1.1c0.7,0,0.7-1.3,0.7-1.9c0-0.1,0-0.3,0-0.5C8.2,140.3,8,140.6,7.7,140.6z"></path> <path class="st14" d="M15.8,95.8c-1.2,0.3-8.1,0.9-10.7-0.6C5,96.3,3,98.4,3,101.9c0,5.2,2.2,15.5,2.2,15.5s4.9,1.3,8.3,0.2 c1.4-6.7,3.3-13.7,2.7-18.8C16.2,98.7,15.8,95.9,15.8,95.8z"></path> <path class="st15" d="M15.8,95.8C15.8,95.8,15.8,95.9,15.8,95.8c-2.5,2.6-7.6,3.5-6.9,4.8c0.5,0.9,4.3,1.9,4.9,2.4 c1.4,1.3-2.5,2.9-2.2,5.9c0.1,1.4-0.6,3.8-0.9,5.2c-0.6,2-3.4,1.9-4.7,3.5c1.5,0.3,4.9,0.9,7.6,0c1.4-6.7,3.3-13.7,2.7-18.8 C16.2,98.7,15.9,96.3,15.8,95.8z"></path> <path class="st14" d="M16.8,82.5c-2.6-3.3-5.1-1.8-5.1-1.8c-1,0.9-2.5,2.2-2.5,2.2l-2.9-0.9c0,0-2.9,0.1-3.3,2.9 c-0.1,0.9,2.2,0.9,1.8,2.1c-0.6,1.7,0.6,2.4,1.2,2.9c0.2,1.5,0.3,2.3,0.1,3.1c-0.3,1.1-1.1,1.6-1,2.6c0.3,1.7,10.1,1.3,10.9,0.3 c0.9-1,0-7.2-0.4-10.4C15.4,83.5,17.1,82.8,16.8,82.5z"></path> <path class="st15" d="M14.7,82.1c-1-0.6-2-1.5-2.7-1c-1.8,1.4-2.8,1.7-2.8,1.7l-2.9-0.9c0,0-0.8,0-1.7,0.5 c0.2,0.1,0.7,0.5,1.2,0.5c0.8,0.1,1.8,0.7,1.7,1.7c0,0.1,0.1,0.4,0.2,0.5c1,0.6,0.3,2.9-0.9,3.5c-0.8,0.4,3.1,2.9,3.1,5.2 c0,1,2.4,0,3.2-0.6c0.7-0.6,1.2,0,0.5,0.5c-1.4,1-2.7,2.1-5.2,2.1c-0.6,0-1.5,0.2-2.1,0.5c2.8,0.7,8.9,0.3,9.6-0.5 c0.9-1,0-7.2-0.4-10.4C15.4,83.5,15.6,82.7,14.7,82.1z M14.6,86.4c-0.3,0.5-0.6,1.2-0.5,1.7c0.2,0.9-0.5,1.2-1.2,0.7 c-0.4-0.3-2.2,0.8-3.2,0.6c-0.9-0.2-0.7-0.9,0.5-1.6c1.4-0.8,2.3-1.2,1.1-2.5c-1-1.1,1.4,0.1,1.8,0.4C13.7,86,14.8,86,14.6,86.4z"></path> <g> <g> <g> <path class="st10" d="M8.6,77.4c-0.1,0.1,0.1,0.2,0.2,0.2c0,0,0.1,0,0.2,0c0.1,0,0.2,0,0.3,0c0.1,0,0.1,0,0.2,0 c0.1,0,0.3,0,0.2-0.2c0,0-0.3-0.2-0.6-0.2C8.8,77.3,8.6,77.4,8.6,77.4z"></path> </g> </g> </g> <path class="st16" d="M10.6,71.3c-0.5-0.3-1.2-0.4-2-0.3c-2.1,0.3-2.6,2-2.5,3.8c0,0.4,0,0.8,0.1,1.2c2.1-2.4,3.5-3.3,3.6-3.4 c-0.1,0.5-0.9,1.6-0.9,1.6c1.2-0.5,2.2-1.4,2.2-1.4c0.6,0.5,0.9,1.1,1.1,1.7C12.1,73.1,11.7,71.8,10.6,71.3z"></path> <path class="st1" d="M11.5,71.1c0,0-0.7-1.5-2.4-1.5c-2.2,0-3.6,1.8-3.6,3.4c0,1.4,0.3,2,0.1,3.2c2.4-2.8,3.9-3.7,3.9-3.7 C9.4,72.8,8.6,74,8.6,74c1.2-0.5,2.2-1.4,2.2-1.4c1.1,0.9,1.3,2.6,1.3,2.6c0.7-0.8,1.1-1.8,0.9-2.8C12.8,71.3,11.5,71.1,11.5,71.1 z"></path> <path class="st9" d="M5.6,76.1c2.4-2.8,3.9-3.7,3.9-3.7C9.4,72.8,8.6,74,8.6,74c0.5-0.2,1.2-1.2,1.5-2.1C7.4,72,5.6,76.1,5.6,76.1 z"></path> <path class="st9" d="M12.8,72c0.4,0.8,0,2-1,2.3c0.2,0.6,0.2,1,0.2,1c0.7-0.8,1.1-1.8,0.9-2.8C12.9,72.3,12.9,72.1,12.8,72z"></path> <path class="st16" d="M11.6,75c-0.2-0.1-0.5-0.1-0.7-0.1c-0.4,0-0.9,0-1.2,0.4l0,0c-0.1,0.1-0.2,0.1-0.3,0.1c0,0-0.2,0-0.3,0 c-0.1,0-0.3,0-0.3,0c0,0-0.2,0-0.3-0.1l0,0c-0.2-0.4-0.7-0.4-1.1-0.4c-0.1,0-0.2,0-0.3,0c0,0-0.1,0.1-0.1,0.1c0.1,0,0.3,0,0.4,0 c0.8,0,1.1,0.2,1.1,0.7c0,0.6-0.5,1-1.2,1c-0.6,0-1-0.4-1.1-0.9c0,0.1-0.1,0.1-0.1,0.2c0,0,0,0,0,0c0,0,0,0,0,0 c0.1,0.5,0.6,0.9,1.2,0.9c0.7,0,1.2-0.4,1.3-1l0,0c0.1-0.2,0.3-0.2,0.5-0.2c0.1,0,0.4,0.1,0.5,0.2l0,0c0,0.6,0.5,1.1,1.2,1.1 c0.5,0,0.9-0.2,1.1-0.6c0-0.3,0.1-0.5,0.1-0.8c0-0.1,0-0.1,0-0.2c0,0,0-0.1,0-0.2C11.9,75.1,11.7,75,11.6,75 C11.6,75,11.6,75,11.6,75z M12,75.7c0,0.6-0.5,1-1.2,1c-0.6,0-1.1-0.5-1.1-1.1c0-0.5,0.4-0.7,1.1-0.6C11.7,75.1,12,75.3,12,75.7z"></path> <g> <g> <path class="st7" d="M7.4,74.7c-0.5,0-1.3,0-1.3,0.8c0,0.6,0.5,1.2,1.2,1.2c0.7,0,1.3-0.5,1.3-1.1C8.6,74.8,7.9,74.7,7.4,74.7z M7.3,76.5c-0.6,0-1.1-0.5-1.1-1.1c0-0.5,0.4-0.6,1.1-0.6c0.8,0,1.1,0.2,1.1,0.7C8.4,76.1,7.9,76.5,7.3,76.5z"></path> </g> <path class="st7" d="M6.1,74.8c-0.1,0-0.1,0-0.1,0c0,0,0,0.2,0,0.2c0,0,0,0.1,0.1,0.1c0,0,0.1,0,0.1,0.1c0,0.1,0,0.4,0.1,0.5 c0,0,0-0.5,0.1-0.7c0.2-0.2,0.4-0.3,0.4-0.3C6.5,74.8,6.2,74.8,6.1,74.8z"></path> <g> <path class="st7" d="M10.8,74.8c-0.5,0-1.3,0-1.3,0.8c0,0.6,0.5,1.2,1.2,1.2c0.7,0,1.3-0.5,1.3-1.1 C12.1,74.9,11.3,74.8,10.8,74.8z M10.7,76.6c-0.6,0-1.1-0.5-1.1-1.1c0-0.5,0.4-0.7,1.1-0.6c0.8,0,1.1,0.2,1.1,0.7 C11.9,76.2,11.4,76.6,10.7,76.6z"></path> </g> <path class="st7" d="M12.1,75c-0.1,0-0.4,0-0.6-0.1c0,0,0.2,0.1,0.4,0.3C12,75.4,12,76,12,76c0.1-0.2,0.1-0.4,0.1-0.5 c0-0.1,0-0.1,0.1-0.1c0,0,0.1,0,0.1-0.1c0,0,0-0.2,0-0.2C12.2,75,12.2,75,12.1,75z"></path> <path class="st7" d="M9.1,75.2c-0.1,0-0.3,0-0.3,0c0,0-0.2,0-0.3-0.1l0.1,0.5c0.1-0.2,0.3-0.2,0.5-0.2c0.1,0,0.4,0.1,0.5,0.2 l0.1-0.5c-0.1,0.1-0.2,0.1-0.3,0.1C9.3,75.2,9.2,75.2,9.1,75.2z"></path> </g> <g> <g> <path class="st11" d="M13.9,94.3c-0.7-0.1,0-0.6-0.6-0.6c-0.7,0-1.3,0-1.9,0.4c-0.3,0.2-0.6,0.1-0.9,0.1C9.2,94.1,7.4,93,5,92.5 c-0.8-0.1-1.3-0.4-2.1-0.6c-0.2,1.2-0.2,2.3,0.2,2.6c1,0.8,3,0.9,4.2,1c1.3,0.1,1.6-0.1,3.4,0.2c1.3,0.2,2.1,0.2,2.6,0.3 c0.5,0.1,0.7,0,0.8-0.4c0.3,0,0.5-0.2,0.5-0.4c0.3,0,0.4-0.2,0.3-0.4c0.4,0,0.8,0,0.8-0.3C15.6,94.4,14.3,94.3,13.9,94.3z"></path> <path class="st11" d="M13.6,93.2l-1.4,0.5l1.3,0.4c0.1-0.1,0.2-0.3,0.4-0.4c0.5,0,0.8-0.2,0.9-0.5 C14.2,93.2,13.9,93.2,13.6,93.2z"></path> </g> </g> <g> <g> <g> <path class="st2" d="M1.6,93.9C1.6,93.9,1.6,93.9,1.6,93.9c0,0.3,0.2,0.5,0.5,0.5h10.9c0.3,0,0.5-0.2,0.5-0.5c0,0,0,0,0,0H1.6z "></path> </g> </g> <path class="st2" d="M14.6,84.4l-2.3,9.5c0,0.2,0,0.6,0.6,0.6l9.2-0.1V83.7l-6.7,0C15,83.7,14.7,84,14.6,84.4z"></path> <linearGradient id="SVGID_4_" gradientUnits="userSpaceOnUse" x1="12.6008" y1="89.0649" x2="27.3268" y2="89.0649"> <stop offset="1.500000e-07" style="stop-color:#EFF6FF"></stop> <stop offset="1" style="stop-color:#EEEEEE"></stop> </linearGradient> <path class="st17" d="M27.1,83.7H15.3c-0.1,0-0.2,0.1-0.3,0.2l-2.4,10.1c0,0.2,0.1,0.3,0.3,0.3h11c0.6,0,1.1-0.4,1.3-1l2.2-9.3 C27.4,83.9,27.2,83.7,27.1,83.7z"></path> </g> <path class="st9" d="M26.7,93.2c0.1,0.2,0.4,0.3,0.7,0.2l20.5-11.3L26.9,92.6C26.7,92.7,26.6,93,26.7,93.2z"></path> <g> <g> <path class="st11" d="M31.4,91.1c-0.5,0-0.7,0-1.2,0c-0.5,0-0.4,0.3-0.1,0.3c0.4,0,0.8,0.1,1.2,0.1c0.3,0,0.3-0.1,0.3-0.2 C31.7,91.2,31.6,91.1,31.4,91.1z"></path> <path class="st11" d="M30.8,91.6c-0.5,0-1-0.1-1.5,0c-0.5,0-0.4,0.2-0.1,0.3c0.4,0.1,1,0.1,1.5,0.2c0.3,0,0.3-0.1,0.3-0.2 C31,91.7,31,91.6,30.8,91.6z"></path> <path class="st11" d="M30.4,92.1c-0.5,0-0.9-0.1-1.3-0.1c-0.4,0-0.4,0.2-0.1,0.3c0.4,0.1,0.9,0.2,1.3,0.2c0.2,0,0.3-0.1,0.3-0.2 C30.6,92.2,30.6,92.1,30.4,92.1z"></path> <path class="st11" d="M30,92.6c-0.5,0-0.7,0-1.2-0.1c-0.4,0-0.4,0.2-0.1,0.3c0.4,0.1,0.7,0.1,1.1,0.2c0.2,0,0.3-0.1,0.3-0.2 C30.2,92.7,30.2,92.6,30,92.6z"></path> </g> </g> </g> <g> <path class="st18" d="M149.8,85.8c-2.1-1.2-11-2.7-12.1-2.9c-1.5-0.2-1.8,2.3-1.3,2.9c0.6,0.7,2.2,1.6,4.9,2.3 c2.1,0.5,6.2,2.4,7.6,0.8C149.8,87.9,152,87,149.8,85.8z"></path> <path class="st19" d="M145.5,87.1c-2.1-0.5-2.5-1.2-6.2-1.7c-1.1-0.2-3.3,0-2.9,0.5c0.6,0.7,2.9,1.6,4.9,2.2 c3.6,1,5.5,1.9,6.8,0.8C148.9,88.1,148.6,87.9,145.5,87.1z"></path> <path class="st11" d="M131.5,76.6c-0.3-0.7-0.9-1.4-1.4-1.8c-0.3-0.3-0.9-0.7-1.1-1c-0.2-0.2-0.5,0.3-0.3,0.6 c-0.2,0.1-0.4,0.5-0.2,0.7c-0.2,0.2-0.3,0.6-0.1,0.8c-0.3,0.2-0.2,0.6,0.1,0.9c0.4,0.3,0.7,0.8,1.7,1.6c0.2,0.1,0.4,0.5,0.6,0.6 c0.2-0.4,1.2-1.4,1.5-1.6C132.1,77.2,131.6,76.9,131.5,76.6z"></path> <path class="st10" d="M129.2,74.8c0,0.5-0.4,1.5-0.8,1.8c0,0,0,0,0,0c0.2,0.1,0.3,0.3,0.6,0.5c0.3,0.3,0.7,0.4,1.1,0.2 c0.1-0.1,0.3-0.1,0.5-0.1c0.3-0.1,0.5-0.5,0.3-0.8C130.5,75.6,129.2,74.5,129.2,74.8z"></path> <path class="st18" d="M136.9,81.5c-1.3-1.1-4.9-4.7-4.9-4.7s-0.9,0.8-1.9,2.2c0,0,4.3,4.9,5.9,6.5c2.4,2.5,3.8-0.3,3.5-1.3 C139.2,83.1,137.7,82.2,136.9,81.5z"></path> <path class="st19" d="M130.8,78c-0.2,0.3-0.5,0.6-0.8,1c0,0,4.3,4.9,5.9,6.5c2,2,3.3,1.3,3.3-0.1c-1.6-1.2-3.5-2-5.7-4.1 C132.8,80.7,131.6,78.5,130.8,78z"></path> <g> <path class="st20" d="M158.9,134.8c0-0.1-2.5-0.8-2.5,0c0,0.7,0.1,1.8-0.5,2.4c-0.7,0.6-3.4,2-4.6,2.2c-0.1,0.2,0.1,0.3,0.3,0.4 c0.9,0.3,1.9,0.2,2.8,0.1c1.1-0.1,2.2-0.2,3.3-0.2c0.5,0,1.1,0,1.3-0.5c0.2-0.3,0.1-0.7,0.1-1.1C159,137,159.1,135.9,158.9,134.8 z"></path> <path class="st16" d="M158.9,134.8c0-0.1-0.6-0.3-1.2-0.3c0,0.1,0.1,0.2,0.1,0.2c1,2.4-1.1,4.2-3.1,5.1c1-0.1,2-0.2,3-0.2 c0.5,0,1.1,0,1.3-0.5c0.2-0.3,0.1-0.7,0.1-1.1C159,137,159.1,135.9,158.9,134.8z"></path> <path class="st1" d="M159.1,137.6c-0.3-0.2-2.2,1.3-4.5,1.3c0-0.3-0.3-0.8-0.6-0.7c-1,0.3-2.7,1-2.9,1c-0.6,0.3-0.4,1.3,0,1.3 c0.3,0,2.3,0,3.5,0c0.7,0,1.7-0.6,2.8-0.6c1.2,0,1.5,0,1.7-0.1C160.1,139.4,159.7,138,159.1,137.6z"></path> <path class="st9" d="M157.2,139.3c-0.8,0-3.3,0.3-3.7,0.5c-0.6,0.2-1.3,0.2-1.8,0c-0.3-0.1-0.5-0.2-0.8-0.4 c-0.4,0.4-0.1,1.2,0.2,1.2h3.5c0.7,0,1.7-0.6,2.8-0.6c1.2,0,1.5,0,1.7-0.1c0.9-0.4,0.8-1.3,0.4-1.9 C159,138.8,158.2,139.2,157.2,139.3z"></path> <path class="st9" d="M156.9,140.6h2.2l0.5-1.4l-2.6,0.7C157.1,140.2,156.9,140.6,156.9,140.6z"></path> </g> <g> <path class="st20" d="M139.4,134.2c-0.3,0.6-0.7,1.7-1.5,1.9c-0.9,0.3-3.9,0.4-5.1,0c-0.1,0.1,0,0.4,0.1,0.5 c0.7,0.7,1.6,1,2.5,1.3c1,0.4,2,0.8,3,1.3c0.4,0.2,1,0.4,1.4,0.1c0.3-0.2,0.4-0.6,0.5-0.9c0.4-1,0.9-2,1.3-3.1 C141.7,135.2,139.8,133.5,139.4,134.2z"></path> <path class="st16" d="M140.8,134.5c0,0.1,0,0.2,0,0.3c-0.1,2.6-2.8,3.3-5.1,3.3c1,0.4,1.9,0.7,2.8,1.2c0.4,0.2,1,0.4,1.4,0.1 c0.3-0.2,0.4-0.6,0.5-0.9c0.4-1,0.9-2,1.3-3.1C141.7,135.2,141.3,134.8,140.8,134.5z"></path> <path class="st1" d="M136,137.1c0.1-0.3,0.1-0.8-0.3-0.9c-1-0.1-2.9-0.3-3.1-0.3c-0.7,0-0.9,1-0.6,1.2c0.3,0.1,2.1,1,3.1,1.5 c0.6,0.3,1.8,0.2,2.8,0.7c1.1,0.5,1.4,0.6,1.6,0.6c1.2,0,1.4-1.3,1.1-2C140.5,137.6,138,138.1,136,137.1z"></path> <path class="st9" d="M138.2,138.6c-0.7-0.3-3.1-1.1-3.5-1.2c-0.6-0.1-1.2-0.4-1.7-0.8c-0.2-0.2-0.4-0.4-0.5-0.7 c-0.5,0.2-0.6,1-0.4,1.1l3.1,1.5c0.6,0.3,1.8,0.2,2.8,0.7c1.1,0.5,1.4,0.6,1.6,0.6c1,0,1.3-0.8,1.2-1.5 C140,138.9,139.1,139,138.2,138.6z"></path> <path class="st9" d="M137.4,139.6l2,0.9l1.1-1l-2.6-0.5C137.7,139.4,137.4,139.6,137.4,139.6z"></path> </g> <path class="st7" d="M146.4,101.8c-1.8,6.3-6.6,28.7-8.2,33.5c0.6,1.1,2.1,1.7,3.6,1.5c1-1.7,10.1-26.4,11.9-32.5 C153.6,104.1,148.3,102,146.4,101.8z"></path> <path class="st2" d="M150.5,103c-0.9,2.9,0,6.4-2.1,8.7c-1.3,1.4-1.3,3.6-1.3,5.5c0,1.5-0.4,3.1-1.2,4.4c-0.9,1.3-1.7,2.2-2,3.9 c-0.2,1.6-0.9,3.9-1.3,5.5c-0.6,2.9-2.6,2.4-3.8,5.1c0.8,0.6,1.8,0.9,2.9,0.7c1-1.7,10.1-26.4,11.9-32.5 C153.6,104.2,152.1,103.6,150.5,103z"></path> <path class="st7" d="M158.2,105c-1.5-0.3-8.1-1-8.8,0.3c-1.1,2,5.6,29.2,6.3,31.4c1.3,0.5,3,0.2,3.7-0.2 c-0.2-5.7-1.3-10.2-1.4-15.1C157.7,115.6,158.4,109.5,158.2,105z"></path> <path class="st2" d="M158.2,105c-0.5-0.1-1.6-0.3-2.8-0.6c0.5,0.7,0.5,4.4,0.4,4.8c-0.2,2.6,1,5.4,0.9,6c-0.5,3.3,0.3,5.5,0.3,6.4 c0,1.1-0.6,3.1-0.3,5.7c0.2,1.3,1.1,4,1.5,5.3c0.2,0.8-0.4,3.3-0.3,4.3c0.5-0.1,1-0.2,1.4-0.4c-0.2-5.7-1.3-10.2-1.4-15.1 C157.7,115.6,158.4,109.5,158.2,105z"></path> <path class="st18" d="M158.3,91.1c0-2.9-1.7-6.7-6.1-6.7c-1.9,0-5.2-0.3-6.3,2.3c-0.5,1.2-1.2,19-1,19.5c0.4,1,13.3,0.9,13.5,0.2 C158.5,105.6,158.2,94.3,158.3,91.1z"></path> <path class="st18" d="M147,97.7c-0.3,1.5,1.8,1.6,2.5,1.4c0.9-0.3,2.4-1.4,4-3.8c2.8-4.1,3.5-5.3,3.5-5.3l-3.9-2.6 C153,87.4,147.3,96.2,147,97.7z"></path> <path class="st19" d="M147.3,98.7c0.6,0.5,1.7,0.5,2.1,0.4c0.9-0.3,2.4-1.4,4-3.8c2.8-4.1,3.5-5.3,3.5-5.3l-0.4-2.2 C155.8,90.9,151,96.6,147.3,98.7z"></path> <path class="st19" d="M158.3,91.1c0-2.9-1.7-6.7-6.1-6.7c-0.4,0-1,0.1-1.6,0.2c3.1,1.2,6.2,0.3,6.2,5.6c0,1.1-1.4,4.6-1.4,5.7 c0,1.9,1.5,2.7,0.9,3.8c-0.9,1.5-1.7,1.1-2.1,2.2c-0.5,1.3,1.1,1.1,1.7,2.3c0.6,1.4-2.1,1.3-2.7,2.8c2.7,0,5.2-0.2,5.2-0.5 C158.5,105.6,158.2,94.3,158.3,91.1z"></path> <path class="st16" d="M151.3,82.3c-0.1,1-1.5,1.4-1.5,2.5c0,1,4.3,1.3,4.3-0.1c0.1-1.4,0.2-4,0.2-4S151.4,81.3,151.3,82.3z"></path> <path class="st20" d="M153.6,75.9c-0.4-0.5-1.1-0.8-1.8-0.9c-0.7-0.1-1.4,0-2,0.1c-0.5,0.1-0.9,0.3-1.2,0.8 c-0.7,1.4-0.8,2.9-1,4.4c-0.1,0.7-0.2,1.5,0.1,2.2c0.4,1.1,1.8,2,2.9,1.6c2.6-0.8,3.6-3.3,3.6-3.6c0-0.8,0.1-1.6,0.1-2.4 C154.4,77.4,154.2,76.5,153.6,75.9z"></path> <path class="st20" d="M150.4,84.1C150.4,84.1,150.4,84.1,150.4,84.1C150.4,84.1,150.4,84.1,150.4,84.1z"></path> <path class="st20" d="M150.6,84.1C150.6,84.1,150.6,84.1,150.6,84.1C150.6,84.1,150.6,84.1,150.6,84.1 C150.6,84.1,150.6,84.1,150.6,84.1z"></path> <path class="st16" d="M152.5,75.2c-0.6-0.1-2.3,0.1-2.7,1.8c0,0.1-0.1,0.9-0.2,1c-0.1,0.5-1,1.3-1.1,1.9c-0.2,1,0.3,3.1,1,3.7 c0.3,0.3,0.6,0.4,0.9,0.5c0.1,0,0.1,0,0.2,0c2.6-0.8,3.6-3.4,3.6-3.6c0-0.8,0.1-1.6,0.1-2.4c0-0.8-0.2-1.6-0.7-2.2 C153.4,75.6,153,75.3,152.5,75.2z"></path> <path class="st9" d="M152,74.3c-2.4-0.3-3.4,1.3-4,1.4c1.8,1.3,4.6,0.6,4.6,1.1c-0.3,2.9,1.8,4.8,2,4.8 C156.3,77.1,154.8,74.7,152,74.3z"></path> <path class="st1" d="M153.1,74.6c-0.4-0.1-0.7-0.2-1.2-0.3c-1.9-0.3-2.9,0.6-3.5,1.1c0,0,2.3,1,4.6,0.5 C153.7,75.9,153.8,74.9,153.1,74.6z"></path> <path class="st20" d="M152.9,78.6c-1,0.3-2,1.7-0.6,2.3c0.4,0.2,0.9,0.1,1.3-0.1c0.3-0.2,0.5-0.5,0.6-0.8c0.1-0.4,0.2-0.9-0.2-1.2 C153.7,78.5,153.3,78.5,152.9,78.6z"></path> <path class="st16" d="M152.4,79.6c0,0,0.3,0.1,0.4,0.3c0.1,0.2,0.2,0.6,0.2,0.6s1-0.7,0.5-1.1C153.1,78.9,152.4,79.6,152.4,79.6z"></path> <path class="st9" d="M150.6,81.2c0-0.4-0.3-0.9-0.9-1.1c-0.5-0.1-1.7-0.4-2-0.2c-0.5,0.5-0.2,1-0.4,1.4c-0.3,0.9-0.7,1.3-0.6,1.9 c0.3,1.7,2.6,3,4.7,1.8c2-1.2,1.1-3.6,1-4.3c-0.3-1.5,1.1-2.8,1.1-2.8l-0.7-0.9C152.8,77.1,151.6,81,150.6,81.2z"></path> <g> <g> <g> <path class="st1" d="M151.3,81c0.4,0.3,1-2.3,1-2.4c-0.3,0.7-0.6,1.6-1,2.1C151.2,80.8,151.2,80.9,151.3,81z"></path> </g> <g> <path class="st1" d="M147.3,83.3c-0.1-0.5,0.1-1.3,0.4-1.4c0.1-0.1,1.6,0,1.6-0.5c0-0.4-0.8-0.2-1.2-0.7 c-0.2-0.2,0-0.6,0.2-0.9c-0.3,0-0.5,0-0.6,0.1c-0.5,0.5-0.2,1-0.4,1.4c-0.3,0.9-0.7,1.3-0.6,1.9c0.3,1.7,2.5,2.9,4.4,1.9 C149.4,85.7,147.6,84.8,147.3,83.3z"></path> </g> </g> </g> <g> <path class="st11" d="M149.6,82.9c-0.2-0.3-0.7-0.1-0.7,0.4c-0.2-0.1-0.6,0.1-0.6,0.4c-0.3,0-0.7,0.3-0.7,0.5 c-0.4,0-0.6,0.3-0.6,0.8c0.1,0.6,0,1.2,0.1,2.7c0,0.2-0.1,2.6-0.1,2.8c0.5-0.1,2.1-0.4,2.6-0.3c0-0.3-0.1-2.5,0-2.9 c0.3-0.8,0.3-1.9,0.3-2.6C149.9,84.2,149.8,83.2,149.6,82.9z"></path> <path class="st10" d="M149.6,82.9c-0.2-0.3-0.7-0.1-0.7,0.4c-0.2-0.1-0.4,0-0.6,0.2c0.3,0.1,0.4,0.3,0.3,0.6 c-0.2,0.7,0.3,2.5,0.4,3.7c0.1,0.9,0.2,1.7,0.2,2.5c0.2,0,0.3,0,0.4,0c0-0.3-0.1-2.5,0-2.9c0.3-0.8,0.3-1.9,0.3-2.6 C149.9,84.2,149.8,83.2,149.6,82.9z"></path> <path class="st10" d="M149.4,82.8l-1.6-0.7c-0.2-0.1-0.3,0-0.4,0.2c-0.1,0.2,0.2,0.5,0.3,0.5l1.5,0.5c0.2,0.1,0.3,0,0.4-0.2 C149.7,83,149.6,82.9,149.4,82.8z"></path> </g> <path class="st13" d="M149.5,87.8c-1.1-0.2-2.1,0-2.4,0.1c0,0-0.1,0-0.1,0.1c-0.1,0.3,0,0.6,0,0.7c0,0.1,0.1,0.1,0.1,0.1 c1.1-0.3,2.1-0.1,2.4-0.1c0.1,0,0.1,0,0.1-0.1C149.7,88.4,149.6,88.1,149.5,87.8C149.6,87.9,149.6,87.9,149.5,87.8z"></path> <path class="st11" d="M128.5,76c-0.1-0.1-0.2-0.1-0.3,0c-0.1,0.1-0.1,0.2,0,0.3c0,0,0.7,0.9,1,1c0.1,0,0.2-0.1,0.1-0.2L128.5,76z"></path> <path class="st11" d="M127.8,72.7c-0.1-0.1-0.3,0-0.3,0.2c0,0.4,1.2,1.6,1.2,1.6c0.1,0.1,0.3,0.1,0.5,0c0.1-0.1,0.1-0.3,0-0.5 L127.8,72.7z"></path> <path class="st11" d="M128.9,74.6c-0.1-0.1-0.3-0.1-0.5,0c-0.1,0.1-0.1,0.3,0,0.5c0,0,1.2,1.1,1.7,1.1c0.1,0,0.3-0.2,0.1-0.3 L128.9,74.6z"></path> <path class="st11" d="M128.8,75.3c-0.1-0.1-0.3-0.1-0.4,0c-0.1,0.1-0.1,0.3,0,0.4c0,0,1.1,1,1.5,1c0.1,0,0.2-0.2,0.1-0.3 L128.8,75.3z"></path> <path class="st18" d="M147,89.4c0,0-0.4,3.9-0.5,5.6c-0.1,1.1,0.1,2.2,0.4,3.3c0.3,1.1,3.5,1.8,3.4-1.7c-0.1-2.3-0.6-7.3-0.6-7.3 C148,89.1,147,89.4,147,89.4z"></path> <path class="st19" d="M149.7,89.3c-0.4,0-0.7,0-1,0c0.1,0.2,0.2,0.4,0.3,0.7c0.4,2.6,1.6,5.7-0.1,8.2c-0.3,0.4-0.7,0.7-1.1,0.9 c1,0.5,2.7,0.2,2.6-2.4C150.2,94.3,149.7,89.3,149.7,89.3z"></path> <ellipse transform="matrix(0.9989 -4.662361e-02 4.662361e-02 0.9989 -3.95 7.0233)" class="st21" cx="148.6" cy="88.2" rx="0.8" ry="0.8"></ellipse> <ellipse transform="matrix(0.9989 -4.642900e-02 4.642900e-02 0.9989 -3.9342 6.9936)" class="st22" cx="148.6" cy="88.2" rx="0.6" ry="0.6"></ellipse> </g> <g> <g> <path class="st22" d="M54.4,81.4c-1.1,0.1-1.8,1.1-1.7,2.2c0.1,1,1.1,1.7,2.1,1.6c2.3-0.2,5.8-0.8,8-1.8L62.4,81 C61.4,81.2,58,81,54.4,81.4z"></path> <path class="st11" d="M69.6,74.2c0.1-0.2,0.1-0.5-0.2-0.6c0.1-0.2-0.1-0.4-0.3-0.4c0.2-0.4,0.4-0.7,0.1-0.8c-0.2,0-0.7,1-1,1.4 c-0.4,0.6-0.8,0.1-1.1,0.7c-0.3,0.6-0.2,1.1-0.2,1.6c0,0.4-0.2,0.6-0.3,0.8c-0.7,1.2-2.9,2.9-4.8,4.6c-0.6,0.6,0.1,2.1,0.7,2 c1.6-0.1,4.4-4.6,5.5-6.1c0.8-1.1,1.2-1.9,1.5-2.3C69.9,74.7,69.9,74.4,69.6,74.2z"></path> <path class="st10" d="M69.6,74.2c0.1-0.2,0.1-0.5-0.2-0.6c0.1-0.2-0.1-0.4-0.3-0.4c0.2-0.4,0.4-0.7,0.1-0.8c-0.2,0-0.7,1-1,1.4 c-0.2,0.3-0.5,1.2,0.3,1.6c0.5,0.3,1-0.1,1.2-0.2C69.9,74.7,69.9,74.4,69.6,74.2z"></path> <path class="st22" d="M66.3,76.6c-0.7,1.2-3.2,3.1-5,4.8c-0.6,0.6,0.4,2.2,1.1,2.2c1.6-0.1,4.7-4.4,5.8-5.9 c-0.5-0.1-1.4-0.9-1.8-1.2C66.4,76.5,66.4,76.5,66.3,76.6z"></path> <path class="st21" d="M67.2,78.4c-1.3,1.1-3.6,3.1-4.9,4c-1.5,1.1-2.7,0.8-4.4,1c-1.8,0.2-3.1,1.2-4.7,1.1c0.4,0.6,1,0.7,1.6,0.7 c2.1-0.2,5.3-0.7,7.5-1.6c0,0,0,0,0,0c1.3-0.1,3.7-3,5.1-4.9C67.6,78.5,67.3,78.3,67.2,78.4z"></path> <path class="st11" d="M67.5,72.5c-0.2,0.6-0.3,0.9-0.4,1.1L66.9,75l0.6-0.4c0.1-0.2,0.2-0.6,0.1-1C67.8,73.1,67.8,72.7,67.5,72.5 z"></path> </g> <path class="st20" d="M54.1,78.6c0.5-0.8-0.7-1.4-1.7-1.8c-0.5-0.2-1.1-0.4-1.7-0.6c-0.1,0-0.2-0.1-0.3,0c-0.1,0.1,0,0.3,0,0.4 c0.4,0.8,0.3,3.6-0.1,4.7c0,0.1,3.9,0.7,3.9,0.7S53.5,79.6,54.1,78.6z"></path> <path class="st16" d="M52.9,77.1c-0.5-0.2-1.7-0.8-2.1-0.9c-0.1,0-0.2-0.1-0.3,0c-0.1,0.1,0,0.3,0,0.4c0.4,0.8,0.3,3.6-0.1,4.7 c0,0.1,1.9,0.3,3,0.5C52.9,81,52.5,78.3,52.9,77.1z"></path> <path class="st20" d="M55.7,74.7c-0.7-0.4-1.3-1.5-1.6-2.1c-0.6-1.6-3-0.9-3.8,0.7c-0.4,0.9-0.4,1.9-0.1,2.8 c0.3,1.2,1.1,2.3,2.2,2.7c0.4,0.2,2.1,0.5,2.5,0.2c0.6-0.3,0.6-2.9,0.8-3.5C56.1,75,55.8,74.8,55.7,74.7z"></path> <path class="st16" d="M51.4,77.1c-0.9-1.1-1.2-2.4-0.7-3.8c0.2-0.5,0.4-0.8,0.7-1.1c-0.5,0.3-0.9,0.7-1.1,1.3 c-0.4,0.9-0.4,1.9-0.1,2.8c0.3,1.2,1.1,2.3,2.2,2.7c0.3,0.1,1.9,0.4,2.4,0.3c-0.2,0-0.4,0-0.7-0.1C53.1,78.8,52.1,77.9,51.4,77.1z "></path> <path class="st0" d="M52.1,71.1c-3.8-0.7-4.6,2-4.5,4c0.1,2,2.2,3.8,3,4.1c0.1,0,1.7,0.1,2.6-1.8c0.2-0.4,0.3-0.8,0.1-0.9 c-0.7-0.4-1-1.5-0.7-1.8c0.4-0.4,0.7,0.3,0.9,0.1c0.3-0.2,0.6-1.6,0.2-2.3C53.5,71.8,52.8,71.2,52.1,71.1z"></path> <linearGradient id="SVGID_5_" gradientUnits="userSpaceOnUse" x1="47.5508" y1="75.7819" x2="50.9634" y2="75.7819"> <stop offset="0" style="stop-color:#00A6D2"></stop> <stop offset="1" style="stop-color:#00BCE8"></stop> </linearGradient> <path class="st23" d="M50,75.8c0-0.3,0.3-1,0.3-1.3c0.3-1.4-0.9-2.5-2.1-1.8c-0.7,0.4-1.2,2.8,0.3,4.7c0.5,0.7,1.7,1.8,2.3,1.8 C51.5,79.1,49.9,77.1,50,75.8z"></path> <path class="st0" d="M47.4,72.2c-1.2,0-2.1,0.9-2.1,2.1c0,1.2,0.9,2.1,2.1,2.1c1.2,0,1.6-0.9,1.6-2.1C49,73.1,48.6,72.2,47.4,72.2 z"></path> <g> <path class="st20" d="M65.8,130.9c-1-0.4-2.4-1.1-2.8-1.5c-0.3-0.3-0.3-0.7-0.4-1.1c-0.3,0.1-0.7,0.2-1,0.2c-0.4,0-0.7-0.1-1-0.2 c0,0.6,0,1.2-0.1,1.8c0,0.3-0.1,0.6,0,0.8c0.2,0.3,0.6,0.4,1,0.4c0.9,0,1.7,0.1,2.6,0.2c0.7,0.1,1.5,0.2,2.2-0.1 c0.1,0,0.3-0.2,0.3-0.3C66.3,131.1,66.1,131,65.8,130.9z"></path> <path class="st16" d="M65.8,130.9C65.8,130.9,65.8,130.9,65.8,130.9c-0.4,0-0.7,0.1-1,0.1c-1.4-0.1-2.8-1-3.2-2.4 c-0.4,0-0.7-0.1-1-0.2c0,0.6,0,1.2-0.1,1.8c0,0.3-0.1,0.6,0,0.8c0.2,0.3,0.6,0.4,1,0.4c0.9,0,1.7,0.1,2.6,0.2 c0.7,0.1,1.5,0.2,2.2-0.1c0.1,0,0.3-0.2,0.3-0.3C66.3,131.1,66.1,131,65.8,130.9z"></path> <path class="st9" d="M66.7,131c-0.1-0.1-1.5-0.5-2.3-0.8c-0.3-0.1-0.5,0.3-0.5,0.5c-1.7,0-3.2-1.2-3.5-1 c-0.4,0.3-0.8,1.3,0.1,1.7c0.1,0.1,0.4,0.1,1.3,0.1c0.8,0,1.6,0.5,2.2,0.5c0.9,0,2.5,0,2.7,0C67,132,67.2,131.2,66.7,131z"></path> <path class="st0" d="M66.4,131.4c-1.1,0.2-2.4-0.1-3.5-0.3c-1.1-0.2-1.9-0.5-2.7-1c-0.2,0.4-0.2,1,0.4,1.3 c0.1,0.1,0.4,0.1,1.3,0.1c0.8,0,1.6,0.5,2.2,0.5c0.9,0,2.5,0,2.7,0c0.3,0,0.4-0.6,0.1-0.9C66.8,131.3,66.6,131.4,66.4,131.4z"></path> <path class="st0" d="M62.1,131.5l-2-0.6l0.4,1.1l1.7,0C62.2,132,62,131.7,62.1,131.5z"></path> </g> <path class="st24" d="M61.3,128.2L61.3,128.2C61.2,128.2,61.2,128.2,61.3,128.2C61.2,128.2,61.2,128.2,61.3,128.2z"></path> <path class="st20" d="M52.3,129.4c-0.5-0.4-0.3-1.3-0.4-1.8c0-0.6-2-0.1-2,0c-0.1,0.9,0,1.7-0.2,2.6c0,0.3-0.1,0.6,0,0.8 c0.2,0.3,0.6,0.4,1,0.4c0.9,0,1.7,0.1,2.6,0.1c0.7,0.1,1.5,0.2,2.2-0.1c0.1,0,0.3-0.2,0.3-0.3C54.9,131,52.8,129.9,52.3,129.4z"></path> <path class="st16" d="M50.8,127.4c0-0.1,0.1-0.1,0.1-0.2c-0.5,0.1-0.9,0.2-0.9,0.3c-0.1,0.9,0,1.7-0.2,2.6c0,0.3-0.1,0.6,0,0.8 c0.2,0.3,0.6,0.4,1,0.4c0.8,0,1.6,0.1,2.4,0.1C51.6,130.7,50,129.3,50.8,127.4z"></path> <path class="st9" d="M56,131c-0.1-0.1-1.5-0.5-2.3-0.8c-0.3-0.1-0.5,0.3-0.5,0.5c-1.7,0-3.2-1.2-3.5-1c-0.4,0.3-0.8,1.4,0.1,1.7 c0.1,0.1,0.4,0.1,1.3,0.1c0.8,0,1.6,0.5,2.2,0.5c0.9,0,2.5,0,2.7,0C56.3,132,56.5,131.2,56,131z"></path> <path class="st0" d="M55.6,131.4c-0.5,0.1-1,0.1-1.4,0c-0.3-0.1-2.3-0.3-2.9-0.4c-0.7,0-1.4-0.4-1.7-1c-0.3,0.4-0.3,1.1,0.3,1.5 c0.1,0.1,0.4,0.1,1.3,0.1c0.8,0,1.6,0.5,2.2,0.5H56c0.3,0,0.4-0.6,0.1-0.9C56,131.2,55.8,131.3,55.6,131.4z"></path> <path class="st5" d="M49.9,110.8c0.2,4-0.5,5-0.7,7.3c-0.2,2.3,0.4,11.1,0.4,11.1s1.4,0.4,2.6,0c0,0,1.2-10.7,1.7-12.9 c0.8-3.3,2.2-16.2,2.2-16.2l-7-0.6C49,99.4,49.7,106.9,49.9,110.8z"></path> <path class="st3" d="M49.9,110.8c0.2,4-0.5,5-0.7,7.3c-0.2,2.3,0.4,11.1,0.4,11.1s0.6,0.2,1.3,0.2c-0.3-3.3-0.8-6.3,0.5-9 c0.4-0.9,0.6-3.4,0.6-4.4c0-2.1-0.6-5.6,0.3-8.6c0.3-1.1,0.4-7.6,0.4-7.6L49,99.4C49,99.4,49.7,106.9,49.9,110.8z"></path> <path class="st5" d="M51.1,100.2c-0.1,0.4,0,0.9,0.2,1.4c0.5,1.2,5.1,12.2,5,13.2c-0.2,3.7,2.2,6.9,4,14.5 c0.7,0.2,2.1,0.4,2.8-0.3c-0.3-4-3.8-26-4.3-28.6C58.8,100.4,53.2,101,51.1,100.2z"></path> <path class="st3" d="M60.3,121.6c-0.6-1.3-2-3.9-2.3-5.3c-0.4-1.6-0.2-6.3-0.6-7.8c-0.2-1-0.3-2.1-0.9-3c-0.4-0.6-0.9-1-1.3-1.6 c-0.6-1-0.7-1.8-0.5-2.8c-1.4-0.3-2.8-0.5-3.7-0.8c-0.1,0.4,0,0.9,0.2,1.4c0.5,1.2,5.1,12.2,5,13.2c-0.2,3.7,2.2,6.9,4,14.5 c0.4,0.1,1,0.3,1.5,0.2c-0.4-1.2-0.5-2.9-0.7-4.1C60.8,124.1,60.9,122.9,60.3,121.6z"></path> <path class="st2" d="M58.8,87.1c0-1.1-2.4-4.5-3.8-5.3c-1.4-0.9-1.9-1.4-3.7-1.1c-2,0.4-1.6,3.2-1.6,8.9c0,0.4-0.9,10.2-1,11 c1.6,1.1,9,1.1,10.8,0.4c0-4.9-1.1-8.5-1.1-10.8C58.3,89.4,58.8,88.8,58.8,87.1z"></path> <path class="st7" d="M51.2,80.7c-2,0.6-1.6,3.2-1.6,8.9c0,0.4-0.9,10.2-1,11c0.7,0.5,2.4,0.7,4.3,0.8c0-2.2-1.6-3.1-1.6-5 c0-1.2,1.5-2.5,1.4-3.5c-0.2-1.8-0.6-6.4,0.2-9.1C53.1,83,51.8,80.5,51.2,80.7z"></path> <path class="st0" d="M49.4,130.9l0.4,1.1h1.7c0,0-0.2-0.3-0.1-0.5L49.4,130.9z"></path> <g> <path class="st22" d="M52.7,82.9c-0.5,0.9-0.2,2,0.7,2.5c2,1.2,5.1,2.8,7.5,3.2l1.1-2.1c-1-0.5-3.6-2.6-6.7-4.4 C54.3,81.6,53.2,82,52.7,82.9z"></path> <path class="st11" d="M71.8,83.7c-0.7,0.2-0.3-0.5-0.9-0.3c-0.6,0.3-1.1,0.7-1.5,1.4c-0.2,0.3-5.7,1.4-8.3,1.7 c-0.9,0.1-1.2,1.7-0.6,2.1c1.4,0.9,7.2-1.4,9-1.9c1.3-0.4,2.1-0.8,2.6-0.9c0.5-0.1,0.7-0.3,0.5-0.7c0.2-0.1,0.4-0.4,0.2-0.6 c0.3-0.1,0.3-0.4,0.1-0.6c0.4-0.2,0.8-0.3,0.6-0.6C73.4,83,72.2,83.6,71.8,83.7z"></path> <path class="st22" d="M67.7,85.3c-1.2,0.5-4.4,0.6-6.9,0.9c-0.9,0.1-1,2-0.4,2.4c1.4,0.9,6.4-0.8,8.2-1.3c-0.3-0.4-0.6-1.5-0.7-2 C67.9,85.2,67.8,85.3,67.7,85.3z"></path> <path class="st21" d="M68.2,86.5c-2.1,1.2-4.4,1.6-6.7,1c-0.2,0-1-0.3-1.1-0.4c-0.1,0-0.1-0.1-0.2-0.1c-2.4-1-5.4-2.1-7.1-4.1 c0-0.1-0.7-1-0.8-1c-0.1,0.1,0.4,0.8,0.3,1c-0.5,0.9-0.2,2,0.7,2.5c1.8,1.1,4.7,2.6,7,3.1c0,0,0,0,0,0c1.4,0.9,6.4-0.8,8.2-1.3 C68.5,87.1,68.3,86.8,68.2,86.5C68.2,86.4,68.2,86.5,68.2,86.5z"></path> <path class="st11" d="M70.9,83l-1,1.1l0.8-0.1c0.2-0.1,0.5-0.4,0.7-0.8c0.5-0.2,0.6-0.5,0.5-0.9C71.4,82.8,71.2,82.9,70.9,83z"></path> </g> </g> </g> <g> </g> <g> </g> <g> </g> <g> </g> <g> </g> <g> </g> <g> </g> <g> </g> <g> </g> <g> </g> <g> </g> <g> </g> <g> </g> <g> </g> <g> </g> </svg> 