<svg width="570" height="321" fill="none" xmlns="http://www.w3.org/2000/svg"><path d="M328.036 285.208c27.356 0 49.533-2.841 49.533-6.346s-22.177-6.347-49.533-6.347-49.532 2.842-49.532 6.347c0 3.505 22.176 6.346 49.532 6.346z" fill="#EBECED"/><path d="M560.723 73.943c-.858-7.373-3.941-10.371-5.379-10.976l-12.752 2.067-4.025 29.483s21.491 11.206 24.887 1.463c3.397-9.743-1.873-14.675-2.731-22.037z" fill="#242628"/><path d="M557.955 69.846a9.301 9.301 0 00-.477-5.461 9.3 9.3 0 00-3.471-4.243 9.294 9.294 0 00-13.835 4.464 9.3 9.3 0 002.466 10.181 9.296 9.296 0 004.97 2.311 8.956 8.956 0 006.67-1.49 8.958 8.958 0 003.677-5.763z" fill="#242628"/><path d="M549.651 75.66l-.181 14.107-6.817-.895 1.777-10.674 5.221-2.538z" fill="#FBB087"/><path d="M543.511 83.686l5.306-3.928-4.436-2.515-.87 6.443zm-1.221-8.957a6.989 6.989 0 00-.399-2.623c-.387-1.209-1.124-2.32-2.502-1.874-2.345.726-.652 4.618 1.572 5.222.652.182 1.329-.205 1.329-.725z" fill="#EE896C"/><path d="M551.114 62.157a9.937 9.937 0 00-4.751-.834 6.127 6.127 0 00-3.924 1.404 6.126 6.126 0 00-2.119 3.589c-1.439 6.455-1.124 10.71 1.692 12.898 1.994 1.547 4.182 1.704 7.252.447a8.68 8.68 0 003.288-3.735l1.305-3.349s4.448-7.337-2.743-10.42z" fill="#FBB087"/><path d="M541.819 74.753l4.073.315a1.973 1.973 0 01-.848.97c-.384.22-.83.303-1.267.238a2.272 2.272 0 01-1.958-1.523z" fill="#fff"/><path d="M543.415 72.01a8.078 8.078 0 01-.375.785c0 .097-.121.23-.181.363-.061.133-.133.23-.182.362l-.072-.471c.132.072.247.17.338.29.113.132.199.283.254.447a1.65 1.65 0 01-.496 0 1.036 1.036 0 01-.386-.181h-.061a.264.264 0 01-.061-.088.256.256 0 01-.022-.105c0-.037.007-.073.022-.106a.265.265 0 01.061-.088c.103-.09.2-.187.29-.29l.29-.314c.186-.202.384-.392.593-.568h.06s-.048-.06-.072-.037z" fill="#242628"/><path d="M545.191 70.91s1.016-2.479 4.146-.158a2.776 2.776 0 01-.911.722 2.781 2.781 0 01-1.126.285 2.777 2.777 0 01-1.145-.2 2.78 2.78 0 01-.964-.65z" fill="#fff"/><path d="M546.073 70.547a1.096 1.096 0 00.112.819c.142.248.375.431.65.51a1.087 1.087 0 001.305-.785 1.11 1.11 0 00-.115-.817 1.113 1.113 0 00-.646-.513 1.042 1.042 0 00-.424-.032 1.036 1.036 0 00-.4.14 1.038 1.038 0 00-.482.678z" fill="#242628"/><path d="M549.337 70.776l-1.1-.314c-.181 0-.363 0-.52-.097a1.124 1.124 0 01-.254 0 .953.953 0 00-.241 0 4.465 4.465 0 00-.919.06 2.814 2.814 0 00-.955.436 1.48 1.48 0 01.302-.523 1.477 1.477 0 01.484-.36 1.983 1.983 0 011.209-.18 4.318 4.318 0 011.148.338c.366.155.695.386.967.677l-.121-.037z" fill="#242628"/><path d="M542.81 70.547s-.653-2.66-2.768-1.21c.024.037.761 2.624 2.768 1.21z" fill="#fff"/><path d="M542.181 69.918a.92.92 0 01-.785 1.015.931.931 0 01-.618-.326.929.929 0 01-.216-.665.919.919 0 01.785-1.015c.448-.024.81.41.834.991z" fill="#242628"/><path d="M540.042 69.338a.722.722 0 01.157-.46c0-.084.109-.132.157-.193.065-.054.133-.102.206-.145a1.517 1.517 0 01.519-.157h.617c.226.046.437.145.616.29a1.34 1.34 0 01.448.496c.094.178.164.37.205.568.06.205.06.423 0 .628a2.778 2.778 0 00-.375-.374 1.393 1.393 0 00-.29-.411 1.629 1.629 0 00-.834-.532 1.752 1.752 0 00-.362 0 .947.947 0 00-.375 0l-.339.157c-.096.085-.205.157-.29.242-.084.084 0 0 0 0s-.084-.073-.06-.11zm6.055-2.974s-.411.604.967.895a23.74 23.74 0 012.877.906 1.136 1.136 0 00.943 0 .29.29 0 00.089-.368.295.295 0 00-.089-.103 6.761 6.761 0 00-2.816-1.487c-1.608-.411-1.971.157-1.971.157zm6.431 7.58a17.565 17.565 0 01.81-11.158s2.296-.29 2.55 3.892c.447 6.746-3.36 7.265-3.36 7.265z" fill="#242628"/><path d="M551.295 75.926a7.065 7.065 0 011.39-2.418c.859-.967 2.007-1.825 3.179-.858 2.019 1.644-1.208 4.75-3.553 4.497-.725-.049-1.257-.701-1.016-1.221z" fill="#FBB087"/><path d="M555.078 74.354a2.13 2.13 0 00-.81-.072 1.554 1.554 0 00-.676.23c-.206.132-.363.314-.569.447-.235.14-.482.261-.737.362a.79.79 0 01.133-.447 1.979 1.979 0 01.254-.362c.215-.22.487-.375.786-.448.293-.072.6-.072.894 0 .279.057.542.173.774.339 0 0-.073-.024-.049-.049zm-1.607-10.65s-4.678 5.67-14.19 3.627c-.097 0-.798-5.065 5.173-8.171 5.971-3.107 11.18 1.85 11.132 4.073a6.041 6.041 0 01-2.115.472z" fill="#242628"/><path d="M340.425 25.446h-.604L320.313.363l-18.941 25.083h-77.115l-40.346 39.951h39.79v9.429h1.874v-9.429h36.744l.109.109.097-.109h.858l.097.109.109-.109h36.732v190.231h40.153V65.398h36.744l.109.108.097-.109h.942l40.347-39.951h-78.288zM223.701 63.523h-35.257l35.221-34.886.036 34.886zm37.12-36.191l-16.922 16.923-16.922-16.923h33.844zm-35.246 1.33l16.922 16.923-16.922 16.923V28.661zm1.716 34.861l16.572-16.584 16.583 16.584h-33.155zm34.617-1.208l-16.655-16.706 16.655-16.718v33.424zm37.107-34.996l-16.921 16.924-16.922-16.924h33.843zm-35.233 1.33l16.922 16.924-16.922 16.923V28.649zm1.704 34.862l16.583-16.585 16.572 16.585h-33.155zm34.859-.955l-16.922-16.923 16.922-16.923v33.846zm19.992-59.05l17.103 22h-33.711l16.608-22zm16.777 23.826l-16.801 16.802-16.801-16.802h33.602zm-33.409 188.393l16.656-16.645 16.644 16.645h-33.3zm33.542 1.874l-16.922 16.923-16.922-16.923h33.844zm-33.687-37.981h33.554l-16.801 16.803-16.753-16.803zm.061-1.874l16.74-16.742 16.753 16.742h-33.493zm0-36.107h33.493l-16.705 16.706-16.788-16.706zm-.109-1.886l16.825-16.814 16.825 16.814h-33.65zm0-36.264h33.602l-16.801 16.802-16.801-16.802zm.06-1.886l16.789-16.742 16.753 16.73-33.542.012zm-.06-36.192h33.602l-16.801 16.803-16.801-16.803zm.06-1.874l16.789-16.754 16.753 16.742-33.542.012zm-1.39-34.862l16.801 16.779-16.801 16.802v-33.58zm0 38.066l16.801 16.79-16.801 16.803V66.739zm0 38.078l16.801 16.79-16.801 16.803v-33.593zm0 38.065l16.801 16.803-16.801 16.802v-33.605zm0 38.078l16.801 16.802-16.801 16.803V180.96zm0 71.683v-33.606l16.801 16.803-16.801 16.803zm1.572 1.075l16.559-16.56 16.595 16.572-33.154-.012zm34.75-1.015l-16.862-16.863 16.862-16.923v33.786zm0-38.078l-16.862-16.863 16.862-16.863v33.726zm0-38.065l-16.862-16.924 16.862-16.923v33.847zm0-38.078l-16.862-16.923 16.862-16.924v33.847zm0-38.078l-16.862-16.923 16.862-16.923v33.846zm0-38.065l-16.862-16.924 16.862-16.923v33.847zm37.167-35.007l-16.922 16.923-16.921-16.923h33.843zm-35.246 1.33l16.922 16.923-16.922 16.923V28.661zm1.705 34.861l16.583-16.584 16.583 16.584H342.13zm34.871-.954l-16.922-16.924 16.922-16.923v33.847zm1.873-35.237h35.222l-35.222 34.874V27.33z" fill="#E8EAEA"/><path d="M220.789 158.863a52.103 52.103 0 0113.972 6.044 30.894 30.894 0 019.283 9.042 26.3 26.3 0 014.037 11.967 40.168 40.168 0 01-1.632 14.893c-1.998 6.995-4.927 12.438-8.787 16.331a26.59 26.59 0 01-13.839 7.482l5.717 37.631a4.033 4.033 0 01-.073 1.644 3.304 3.304 0 01-1.426 1.946 2.5 2.5 0 01-2.164.362l-16.74-4.762a4.516 4.516 0 01-1.832-.775 4.512 4.512 0 01-1.323-1.486 13.126 13.126 0 01-.943-2.998l-5.137-33.847-11.325-3.227-8.521 29.942a4.103 4.103 0 01-1.753 2.418 3.112 3.112 0 01-2.647.459l-16.136-4.593a3.163 3.163 0 01-1.209-.669 3.168 3.168 0 01-.81-1.12 4.034 4.034 0 01-.229-2.938l25.757-90.419a4.063 4.063 0 011.741-2.418 3.166 3.166 0 012.659-.447l33.36 9.538zm-25.987 38.44l13.912 3.953c2.977.98 6.18 1.052 9.198.205 2.683-.846 4.581-3.239 5.693-7.156 1.112-3.916.761-6.939-1.076-9.078a15.816 15.816 0 00-7.917-4.678l-13.912-3.965-5.898 20.719z" fill="#F34545"/><path d="M223.702 134.831a4.074 4.074 0 01-2.881-1.193 4.077 4.077 0 01-1.193-2.88V69.471c0-1.08.43-2.117 1.193-2.88a4.074 4.074 0 015.761 0 4.073 4.073 0 011.193 2.88v61.287a4.073 4.073 0 01-4.073 4.073zm0-68.757a3.397 3.397 0 00-3.397 3.397v61.287c0 .901.358 1.765.995 2.402a3.396 3.396 0 002.402.994 3.395 3.395 0 003.396-3.396V69.471a3.397 3.397 0 00-3.396-3.397z" fill="#E8EAEA"/><path d="M223.702 134.493a3.747 3.747 0 01-2.638-1.098 3.743 3.743 0 01-1.097-2.637v-10.481a3.735 3.735 0 013.735-3.723 3.734 3.734 0 013.735 3.723v10.481a3.748 3.748 0 01-1.098 2.637c-.7.7-1.648 1.095-2.637 1.098z" fill="#E8EAEA"/><path d="M223.69 149.639a5.383 5.383 0 01-.762 0 5.595 5.595 0 01-4.762-5.439 1.206 1.206 0 011.14-.992 1.206 1.206 0 011.217.895 3.25 3.25 0 002.744 3.203c1.523.23 2.792-.725 3.408-2.538 1.209-3.385-3.021-5.815-3.203-5.923a1.21 1.21 0 01-.428-.431 1.215 1.215 0 01-.164-.585v-5.27a1.221 1.221 0 010-.538 1.211 1.211 0 01.654-.82 1.207 1.207 0 011.049 0 1.211 1.211 0 01.654.82c.04.177.04.361 0 .538v4.618c2.103 1.426 4.968 4.545 3.626 8.352a5.597 5.597 0 01-1.915 2.9 5.593 5.593 0 01-3.258 1.21z" fill="#E8EAEA"/><path d="M224.705 54.578h-2.007a4.896 4.896 0 00-4.895 4.896v12.535a4.896 4.896 0 004.895 4.896h2.007a4.896 4.896 0 004.895-4.896V59.474a4.896 4.896 0 00-4.895-4.896z" fill="#DEE1E2"/><path d="M223.4 179.473c-.532 0-.967-.206-.967-.459v-35.419c0-.266.435-.471.967-.471.531 0 .979.205.979.471v35.419c0 .253-.436.459-.979.459z" fill="#E8EAEA"/><path d="M80.677 278.572a3.132 3.132 0 01-1.347-.329 3.127 3.127 0 01-1.07-.88 4.013 4.013 0 01-1.016-2.72v-93.985a4 4 0 011.027-2.756 3.115 3.115 0 012.418-1.209h41.216a34.817 34.817 0 0114.505 2.683 25.726 25.726 0 019.403 6.987 26.457 26.457 0 015.065 9.743 39.763 39.763 0 011.535 10.88 28.79 28.79 0 01-.834 7.349 27.837 27.837 0 01-1.982 5.379 17.743 17.743 0 01-2.418 3.627c-.81.919-1.474 1.62-1.982 2.103a21.415 21.415 0 016.974 9.103 34.845 34.845 0 011.982 12.438 44.214 44.214 0 01-1.535 11.641 27.892 27.892 0 01-5.052 10.106 25.668 25.668 0 01-9.15 7.132 32.043 32.043 0 01-13.827 2.683l-43.912.025zm47.876-70.994a8.801 8.801 0 00-1.982-6.044 7.333 7.333 0 00-2.663-1.746 7.324 7.324 0 00-3.151-.454H100.91v16.585h19.847a7.389 7.389 0 003.163-.477 7.373 7.373 0 002.663-1.772 8.859 8.859 0 001.97-6.092zm-27.643 48.449h21.116a7.848 7.848 0 003.354-.592 7.855 7.855 0 002.786-1.958 9.83 9.83 0 002.309-6.329 9.83 9.83 0 00-2.309-6.328 7.9 7.9 0 00-2.789-1.948 7.88 7.88 0 00-3.351-.59H100.91v17.745z" fill="#2591CF"/><path d="M295.414 176.741a4.828 4.828 0 013.904 1.596 9.456 9.456 0 011.861 3.203l27.909 91.652c.279.7.45 1.437.508 2.188a3.279 3.279 0 01-.834 2.249 2.583 2.583 0 01-1.982.943h-16.125a4.668 4.668 0 01-1.942-.215 4.66 4.66 0 01-1.684-.994 5.454 5.454 0 01-1.341-2.418l-3.626-12.088h-34.037l-3.626 12.088a5.466 5.466 0 01-1.342 2.418 4.68 4.68 0 01-3.626 1.209h-16.112a2.558 2.558 0 01-1.982-.943 3.27 3.27 0 01-.834-2.249 7.425 7.425 0 01.507-2.188l27.909-91.652a9.28 9.28 0 011.861-3.203 4.829 4.829 0 011.769-1.246 4.835 4.835 0 012.136-.35h20.729zm-20.729 63.572h20.729l-10.371-34.935-10.358 34.935z" fill="#00A69C"/><path d="M392.871 278.572a4.836 4.836 0 01-3.517-1.306 9.648 9.648 0 01-1.728-2.031l-29.311-49.767v49.175a4.064 4.064 0 01-1.028 2.768 3.158 3.158 0 01-2.417 1.209h-16.789a3.16 3.16 0 01-1.345-.332 3.164 3.164 0 01-1.072-.877 4.06 4.06 0 01-1.016-2.768v-93.985a4.052 4.052 0 011.016-2.757 3.15 3.15 0 012.417-1.208h13.296a4.833 4.833 0 013.517 1.305 9.648 9.648 0 011.728 2.031l29.311 49.767v-49.138a4.003 4.003 0 011.028-2.757 3.115 3.115 0 012.417-1.208h16.777a3.149 3.149 0 012.417 1.208 4.069 4.069 0 011.028 2.757v93.985a4.06 4.06 0 01-1.028 2.768 3.164 3.164 0 01-1.072.877 3.164 3.164 0 01-1.345.332l-13.284-.048z" fill="#FFCE67"/><path d="M455.397 176.741a42.425 42.425 0 0116.136 2.974 37.637 37.637 0 0112.607 8.365 38.562 38.562 0 018.316 12.874 49.355 49.355 0 013.396 16.367c.085 2.043.121 3.917.121 5.609v9.67c0 1.656 0 3.445-.121 5.38a49.77 49.77 0 01-3.336 16.439 38.78 38.78 0 01-8.122 12.814 36.397 36.397 0 01-12.353 8.365 41.441 41.441 0 01-16.003 2.974h-34.557a3.172 3.172 0 01-2.418-1.209 4.064 4.064 0 01-1.015-2.768v-93.937a4.051 4.051 0 011.015-2.756 3.166 3.166 0 012.418-1.209l33.916.048zm16.765 40c-.508-11.146-6.31-16.722-17.406-16.73h-13.054v55.291h13.695c10.757 0 16.346-5.577 16.765-16.73.084-2.043.133-3.953.133-5.754v-10.396c0-1.753-.049-3.638-.133-5.681z" fill="#4AC1DD"/><path d="M519.627 305.709a1.142 1.142 0 01-.435-.096 2.277 2.277 0 01-.864-1.057 2.271 2.271 0 01-.103-1.361c5.427-26.594 10.6-53.442 15.604-79.419 5.004-25.977 10.178-52.801 15.544-79.117.218-1.027.979-1.584 1.717-1.209a2.263 2.263 0 01.967 2.418c-5.379 26.292-10.54 53.115-15.532 79.068-4.992 25.954-10.19 52.862-15.617 79.468-.217.725-.749 1.305-1.281 1.305zm-32.006 0a1.142 1.142 0 01-.435-.096 2.26 2.26 0 01-.955-2.418c5.427-26.594 10.6-53.442 15.604-79.419 5.004-25.977 10.165-52.801 15.544-79.117.206-1.027.979-1.584 1.716-1.209a2.26 2.26 0 01.955 2.418c-5.366 26.292-10.54 53.115-15.532 79.068-4.991 25.954-10.177 52.862-15.616 79.468-.169.725-.701 1.305-1.281 1.305z" fill="#F5F7F8"/><path d="M528.088 258.844H497.75c-.762 0-1.415-.871-1.439-1.947-.024-1.075.556-1.958 1.33-1.958h30.314c.761 0 1.414.871 1.438 1.958.024 1.088-.556 1.947-1.305 1.947zm4.835-26.413h-30.338c-.774 0-1.414-.87-1.451-1.946-.036-1.076.568-1.958 1.33-1.958h30.314c.774 0 1.414.87 1.451 1.958.036 1.088-.569 1.946-1.306 1.946zm-9.67 52.825h-30.326c-.773 0-1.414-.87-1.45-1.958-.037-1.088.568-1.946 1.329-1.946h30.314c.774 0 1.415.87 1.451 1.946.036 1.076-.568 1.958-1.318 1.958zm15.411-79.225H508.35c-.761 0-1.414-.883-1.438-1.959-.024-1.076.556-1.958 1.329-1.958h30.303c.773 0 1.426.882 1.45 1.958.024 1.076-.556 1.959-1.33 1.959zm4.376-26.413h-30.302c-.774 0-1.415-.882-1.451-1.958-.036-1.076.568-1.959 1.33-1.959h30.314c.762 0 1.414.883 1.45 1.959.037 1.076-.58 1.958-1.341 1.958zm6.224-26.413H518.95c-.761 0-1.414-.87-1.45-1.958-.037-1.088.568-1.946 1.329-1.946h30.314c.774 0 1.414.87 1.451 1.946.036 1.076-.568 1.958-1.33 1.958z" fill="#F5F7F8"/><path d="M536.102 305.709c.154-.003.306-.036.447-.096a2.423 2.423 0 001.209-2.418c-3.179-26.594-6.044-53.442-8.896-79.419-2.853-25.977-5.705-52.801-8.86-79.117-.121-1.027-.846-1.584-1.608-1.209a2.421 2.421 0 00-.973 1.024 2.416 2.416 0 00-.235 1.394c3.154 26.292 6.043 53.115 8.86 79.068 2.816 25.954 5.705 52.862 8.896 79.468.096.725.58 1.305 1.16 1.305zm31.957 0c.154-.003.306-.036.448-.096a2.421 2.421 0 001.208-2.418c-3.179-26.594-6.043-53.442-8.884-79.419-2.84-25.977-5.705-52.801-8.859-79.117-.133-1.027-.846-1.584-1.62-1.209a2.424 2.424 0 00-1.209 2.418c3.143 26.292 6.044 53.115 8.848 79.068 2.804 25.954 5.717 52.862 8.896 79.468.109.725.592 1.305 1.172 1.305z" fill="#E8EAEA"/><path d="M531.569 258.844h30.363c.761 0 1.487-.871 1.607-1.947.121-1.075-.398-1.958-1.208-1.958h-30.314c-.762 0-1.487.871-1.608 1.958-.121 1.088.399 1.947 1.16 1.947zm-2.599-26.413h30.314c.774 0 1.487-.87 1.62-1.946s-.399-1.958-1.209-1.958h-30.277c-.762 0-1.487.87-1.608 1.958s.399 1.946 1.16 1.946zm5.161 52.825h30.314c.762 0 1.487-.87 1.608-1.958s-.399-1.946-1.209-1.946h-30.229c-.774 0-1.487.87-1.62 1.946s.399 1.958 1.136 1.958zm-8.69-79.225h30.302c.774 0 1.499-.883 1.62-1.959.12-1.076-.399-1.958-1.209-1.958h-30.266c-.773 0-1.499.882-1.62 1.958-.12 1.076.399 1.959 1.173 1.959zm-2.188-26.413h30.314c.762 0 1.487-.882 1.608-1.958s-.399-1.959-1.209-1.959h-30.229c-.774 0-1.487.883-1.62 1.959s.399 1.958 1.136 1.958zm-3.952-26.413h30.314c.761 0 1.487-.87 1.607-1.958.121-1.088-.398-1.946-1.208-1.946h-30.266c-.774 0-1.487.87-1.608 1.946s.387 1.958 1.161 1.958z" fill="#E8EAEA"/><path d="M555.888 145.687h-42.8v-3.893c0-.885.352-1.733.977-2.359a3.337 3.337 0 012.359-.977h36.128a3.335 3.335 0 013.336 3.336v3.893z" fill="#B0B6B7"/><path d="M540.731 87.784c-4.218-.242-17.84 3.01-19.641 3.107-1.801.097-16.306-8.462-16.753-9.15-.447-.69-1.015-3.047-2.417-3.833-1.402-.785-2.164-.169-2.684-.495-.519-.327-2.538-2.321-3.009-2.418-.472-.097-.363.387-.121.786.35.58.955 1.269 1.595 2.151a16.543 16.543 0 001.209 1.693c.701.822 1.523 1.97.75 1.994-.774.025 0 .145-1.209-.435s-2.309-.242-1.584.35a17.82 17.82 0 001.753 1.44.474.474 0 00.169.096c.342.212.713.375 1.1.484a10.89 10.89 0 001.716.302c.32.04.628.142.907.302l1.644 1.064s10.479 8.993 13.67 10.6c1.922.956 9.501.327 15.254-.325 3.844-.436 6.877-.883 6.877-.883s3.058-6.709.774-6.83zm-31.873 87.845a23.721 23.721 0 00-.399 4.63c.302 1.414.06 1.849.06 1.849l-5.415-.314s2.357-1.209 2.031-6.794c-.326-5.584 3.723.629 3.723.629z" fill="#FBB087"/><path d="M508.543 180.694a8.453 8.453 0 01-4.653.338 21.936 21.936 0 01-7.071 2.273c-2.418.387-1.97 2.417 2.26 2.006a52.372 52.372 0 018.135-.217c.942.072 2.417.145 2.489-.508.073-.653-.398-4.134-1.16-3.892z" fill="#242628"/><path d="M525.417 178.047a23.718 23.718 0 00-.399 4.629c.302 1.415 0 1.838 0 1.838l-5.403-.303s2.345-1.208 2.031-6.793c-.314-5.585 3.771.629 3.771.629z" fill="#FBB087"/><path d="M525.103 183.111a8.457 8.457 0 01-4.654.339 22.034 22.034 0 01-7.071 2.273c-2.417.386-1.97 2.417 2.261 2.006a52.202 52.202 0 018.122-.217c.943.06 2.417.145 2.502-.52.085-.665-.411-4.122-1.16-3.881z" fill="#242628"/><path d="M530.336 125.415s-24.597 7.966-25.648 17.624c-.508 4.715-4.545 32.058-4.545 32.058s9.513 3.252 11.519 1.318c0 0 2.212-27.283 3.118-31.841.907-4.557 24.96-14.904 24.96-14.904l-.979-6.201-8.425 1.946z" fill="#285FAF"/><path d="M530.336 125.415s-24.597 7.966-25.648 17.624c-.508 4.715-4.545 32.058-4.545 32.058s9.513 3.252 11.519 1.318c0 0 2.212-27.283 3.118-31.841.907-4.557 24.96-14.904 24.96-14.904l-.979-6.201-8.425 1.946z" fill="#28424E"/><path d="M533.455 125.403l5.765 1.003.52 3.264s-24.065 10.347-24.948 14.904c-.205 1.004-.459 3.107-.749 5.767-.447-1.693-.882-3.385-1.33-5.078a8.65 8.65 0 01-.35-1.994 7.05 7.05 0 011.559-4.05c4.061-5.862 13.09-10.77 19.533-13.816z" fill="#242628"/><path d="M525.961 145.118c-1.003-6.769 18.795-2.852 22.663-8.655 1.342-2.018 2.139-8.183 0-9.852-4.17-3.251-12.704-2.151-12.704-2.151s-20.136 12.088-20.149 17.032c0 5.573 2.768 37.086 2.768 37.086s9.066 1.209 9.67-.459c1.221-8.788-2.248-33.001-2.248-33.001z" fill="#28424E"/><path d="M552.673 88.256a7.261 7.261 0 00-.895-1.064 17.709 17.709 0 00-5.56-2.853c-.543-.169-1.051-.326-1.498-.423a5.18 5.18 0 00-.919-.17 17.93 17.93 0 00-7.035 1.802 101.948 101.948 0 01-9.669 3.554s.991 6.225.23 8.087l5.886-1.717s-1.898 2.974-.81 8.764c1.088 5.791-5.367 12.862-5.729 22.46 0 0 14.395-2.079 23.146 1.584 0 0-.072-.593-.241-1.572a318.25 318.25 0 01-1.572-11.931c-.87-7.688 5.85-19.824 5.85-19.824a8.47 8.47 0 00.111-3.473 8.463 8.463 0 00-1.295-3.224z" fill="#2591CF"/><path d="M538.205 124.556l-20.439-.822a1.075 1.075 0 01-.646-.252 1.075 1.075 0 01-.357-.594l-2.829-13.841a1.073 1.073 0 01.259-.852 1.056 1.056 0 01.817-.356l20.451.822a1.063 1.063 0 011.003.846l2.829 13.841a1.071 1.071 0 01-.263.857 1.07 1.07 0 01-.825.351z" fill="#F34545"/><path d="M557.677 109.978a66.674 66.674 0 00-.399-2.599c-.519-3.252-1.208-6.745-1.486-7.99a2.6 2.6 0 00-.073-.314v-.17l-.834.339-4.533 1.801.303.87c-1.209.411 1.462 8.933 1.208 9.018-2.224.834-3.626 2.128-5.959 3.324-1.982 1.016-3.71 1.983-4.689 2.515a.753.753 0 01-.194.108 1.028 1.028 0 01-.302.121h-.29a.924.924 0 01-.399-.072 6.17 6.17 0 00-2.212-.919l.169.834s-1.377.786-1.825 1.064c-.204.101-.414.19-.628.266-.181 0-1.813-.097-2.188-.085-.375.012-.592.23-.592.472 0 0 0 .121.242.157h.278-.436c-.374 0-.592.23-.58.471 0 0 0 .121.242.157l.713.085a.443.443 0 00-.459.459s0 .121.229.158l.774.096a.422.422 0 00-.126.149.416.416 0 00-.043.19s0 .121.229.169c.23.048 3.046.496 3.336.435a15.195 15.195 0 002.66-1.644c.29-.157.589-.298.894-.423l.991-.193c1.064-.194 2.913-.568 5.379-1.137 1.62-.362 3.505-.822 5.608-1.366a12.963 12.963 0 002.115-.749 6.238 6.238 0 003.095-2.103 17.247 17.247 0 00-.218-3.494z" fill="#FBB087"/><path d="M546.581 95.968c1.148 3.94 1.656 6.044 1.849 6.806.061.254.085.374.085.374a10.168 10.168 0 001.765-.205 11.345 11.345 0 003.964-1.572l.29-.205c.257-.183.503-.381.738-.592a8.472 8.472 0 001.208-1.282s-1.208-7.736-3.747-11.048a3.972 3.972 0 00-1.68-1.33l-.254-.085a2.876 2.876 0 00-1.837-.02 2.873 2.873 0 00-1.474 1.096 7.18 7.18 0 00-1.27 3.941 11.465 11.465 0 00.363 4.122z" fill="#2591CF"/><path d="M55.74 302.712c0 1.341-12.328 2.417-27.533 2.417S.685 304.041.685 302.712c0-1.33 12.316-2.418 27.522-2.418s27.534 1.076 27.534 2.418z" fill="#E6ECEF"/><path d="M11.974 292.412s-1.209 3.567-1.583 4.461c-.375.895-3.01.073-3.155-.508a29.719 29.719 0 011.04-4.835" fill="#FBB087"/><path d="M6.402 296.486a9.097 9.097 0 00-.798 2.768c.133.484 3.493 1.91 4.242 2.418a9.263 9.263 0 002.418.919c2.236.399 3.94 0 4.11-.339.713-1.438-3.711-2.417-5.597-6.491a.91.91 0 00-.37.08.911.911 0 00-.307.222 1.573 1.573 0 01-.882.521 1.57 1.57 0 01-1.015-.134 2.418 2.418 0 01-.919-1.064 1.735 1.735 0 00-.558.456c-.152.19-.263.409-.324.644z" fill="#242628"/><path d="M41.466 293.911s-.084 3.772-.157 4.727c-.072.955-2.828.979-3.155.483a29.582 29.582 0 01-.483-4.932" fill="#FBB087"/><path d="M37.441 299.436a8.906 8.906 0 00.085 2.889c.266.411 3.904.749 4.75.967a9.929 9.929 0 002.599.133c2.248-.29 3.759-1.209 3.82-1.572.241-1.595-4.268-1.208-7.253-4.484a.935.935 0 00-.33.196.94.94 0 00-.226.311 1.547 1.547 0 01-1.68.931 2.506 2.506 0 01-1.209-.725 1.682 1.682 0 00-.433.613 1.682 1.682 0 00-.123.741z" fill="#242628"/><path d="M68.94 144.296c0-.411-.568-.205-.7.133a1.384 1.384 0 00-.073.291c0-.677.072-1.209 0-1.354 0-.387-.532-.242-.69 0v-.556c0-.496-.58-.291-.712.12a5.917 5.917 0 00-.11.689v-.374c0-.411-.519-.302-.652 0a5.096 5.096 0 00-.133.798c0 .411-.181.846-.23 1.208-.048.363-.483 2.152-1.353 2.333-1.354.291-.496-2.043-1.45-2.574-.29-.158-.605 1.656-.63 2.671-.044.714-.02 1.431.073 2.14.162.599.283 1.209.363 1.825a7.43 7.43 0 01-.762 1.801l3.397.774a13.555 13.555 0 011.209-2.297 7.764 7.764 0 002.054-3.626c.214-.901.343-1.82.387-2.744 0 0 .024-1.125.012-1.258z" fill="#FBB087"/><path d="M37.042 172.655s10.758-.084 16.596-6.636c4.665-6.528 9.162-13.756 9.5-14.421.919.35 2.889 1.208 2.889 1.208s-6.152 13.781-8.558 16.924c-2.405 3.143-7.107 8.304-17.079 10.879-4.774-5.452-3.348-7.954-3.348-7.954z" fill="#FBB087"/><path d="M45.117 258.36c.616-8.111-2.188-33.52-2.418-35.708-.23-2.188-1.813-2.418-2.985-2.829-5.862-1.765-12.812 7.338-10.963 15.497 0 .133 0 .278.097.411 1.1 4.739 7.324 19.934 6.89 24.322-3.41 9.199.459 28.25 1.619 36.264h.41a24.159 24.159 0 004.582-.508s2.151-29.35 2.768-37.449z" fill="#242628"/><path d="M41.72 213.997a27.488 27.488 0 01-6.66.435c-5.633-.145-12.776-2.998-12.776-2.998-7.252 7.773-3.24 16.923-3.493 19.885-.254 2.962-.822 17.226-1.475 25.155-7.252 7.132-7.554 26.111-9.67 36.084l-.072.338a24.587 24.587 0 004.835 1.354l.29-.798c2.164-6.564 12.196-25.385 14.686-32.747 2.26-6.672 8.11-26.92 8.219-26.908l7.458 1.281c.069-7.05-.38-14.096-1.342-21.081z" fill="#242628"/><path d="M43.618 222.591a68.736 68.736 0 01-26.302.145c.713-4.521 1.91-18.132 2.091-23.293v-.532c.121-3.3.182-5.645.254-5.742.073-.097-.374-10.722.484-14.844a2.81 2.81 0 01.64-1.511 30.684 30.684 0 015.995-4.074s5.246 5.633 7.917-.605c2.938-.265 4.436.339 5.295 3.276 4.701 16.404 3.626 47.18 3.626 47.18z" fill="#28424E"/><path d="M36.898 172.22a26.157 26.157 0 009.838-2.127c2.768 3.263 4.448 9.211 4.448 9.211s-6.708 4.255-11.603 4.666a68.613 68.613 0 00-2.684-11.75z" fill="#28424E"/><path d="M36.583 176.898l21.563 2.345-4.484 12.318-18.07-12.402a.897.897 0 01-.532-.488.89.89 0 01-.076-.36.89.89 0 01.076-.361l.23-.447a1.306 1.306 0 011.293-.605z" fill="#F34545"/><path d="M57.614 185.747c-1.208 3.396-3.01 6.044-3.952 5.814-.943-.23-.701-3.107.532-6.503 1.233-3.397 3.01-6.044 3.952-5.815.943.23.701 3.095-.532 6.504z" fill="#F99BA7"/><path d="M17.582 193.132s2.26 7.785 8.123 11.448a4.102 4.102 0 002.79.434 4.1 4.1 0 002.407-1.474c4.013-4.484 8.026-14.602 9.307-18.422-2.345-1.209-3.106-1.052-3.106-1.052s-5.693 7.906-8.957 13.189L25.73 193" fill="#FBB087"/><path d="M36.946 184.357a7.846 7.846 0 001.088-2.974c0-1.282-.556-3.494.689-4.654a5.367 5.367 0 013.916-.774c2.707.448 3.445 1.209 3.3 1.813-.145.605-2.031.774-2.515 1.753-.483.979-.217 1.584-.35 2.66-.181 1.607-2.417 2.284-2.913 3.082-.387.58-3.215-.906-3.215-.906z" fill="#FBB087"/><path d="M22.151 175.738s-6.043 3.952-6.31 10.698c-.193 5.21 3.252 12.813 3.252 12.813s6.044.665 9.114-4.231a37.387 37.387 0 00-3.53-7.253" fill="#28424E"/><path d="M33.73 161.861a6.81 6.81 0 01-.108-2.624c.193-1.208.69-2.417 2.14-2.272 2.417.302 1.462 4.388-.593 5.379a.993.993 0 01-.405.139.994.994 0 01-.427-.046.985.985 0 01-.367-.221.997.997 0 01-.24-.355z" fill="#EE896C"/><path d="M34.843 152.263c1.051 4.605-1.1 10.879-5.935 12.499-4.835 1.619-9.198-1.209-11.749-5.102-2.925-4.424 1.511-9.585 6.37-11.072 3.058-.967 10.201-1.306 11.313 3.675z" fill="#926350"/><path d="M25.935 163.928l.797 8.981s2.115 3.832 5.548 3.626c3.433-.205 2.998-2.816 2.309-4.762l-2.986-8.123-5.668.278z" fill="#FBB087"/><path d="M34.093 170.431l-5.886-2.865 3.626-3.131 2.26 5.996z" fill="#EE896C"/><path d="M22.768 150.872a10.194 10.194 0 014.484-1.68 6.042 6.042 0 016.769 3.76c2.587 6.044 3.493 11.242.919 13.647-1.983 1.85-3.844 2.007-7.06 1.33-1.208-.254-2.96-2.418-3.625-3.494l-2.249-2.937s-5.668-6.371.762-10.626z" fill="#FBB087"/><path d="M30.527 162.707a7.34 7.34 0 001.028 0c.33-.051.652-.149.955-.29.285-.15.56-.32.822-.508.265-.145.52-.387.833-.592v.423l-.072.157c0 .084-.085.181-.145.254l-.17.181a2.511 2.511 0 01-1.039.496 4.733 4.733 0 01-1.1.12 3.992 3.992 0 01-1.075-.145l-.037-.096zm1.088-4.606c.327.278.64.544.98.81l.459.447c.175.119.33.266.459.435a.243.243 0 010 .315l-.339.387a1.921 1.921 0 01-.423.302c.016-.174.057-.345.121-.508.06-.155.133-.304.218-.447v.35a6.172 6.172 0 01-.387-.483l-.387-.484a27.727 27.727 0 01-.761-1.015l.06-.109z" fill="#242628"/><path d="M29.96 158.307s-1.439-2.213-4.086.616a2.55 2.55 0 001.012.632 2.549 2.549 0 002.293-.346c.328-.235.595-.544.78-.902z" fill="#fff"/><path d="M29.198 158.234c.133.287.149.616.042.914a1.212 1.212 0 01-.61.682 1.204 1.204 0 01-.915.021 1.206 1.206 0 01-.668-.626 1.21 1.21 0 01-.042-.914c.106-.298.325-.543.61-.681a1.21 1.21 0 011.583.604z" fill="#242628"/><path d="M32.365 157.497s.145-2.744 2.49-1.632c0-.049.084 2.599-2.49 1.632z" fill="#fff"/><path d="M32.848 156.808a1.027 1.027 0 001.064.979 1.039 1.039 0 00.591-.466 1.04 1.04 0 00.122-.743 1.027 1.027 0 00-.33-.708 1.024 1.024 0 00-.734-.271.974.974 0 00-.349.168.988.988 0 00-.258.288.993.993 0 00-.106.753zm-6.974 2.115a2.73 2.73 0 01.786-.919c.318-.262.677-.47 1.063-.616.201-.08.413-.128.629-.145.217-.062.447-.062.665 0a1.3 1.3 0 01.882.955 2.309 2.309 0 00-.955-.423 3.157 3.157 0 00-.483-.073 1.788 1.788 0 00-.556 0 4.292 4.292 0 00-1.04.423 4.132 4.132 0 00-.882.726c-.133.072-.133.072-.109.072z" fill="#242628"/><path d="M34.83 155.816l-.338-.157a.67.67 0 00-.338 0 1.74 1.74 0 00-.339 0 .695.695 0 00-.266.145c-.108.109-.241.17-.35.29a2.116 2.116 0 00-.23.363c-.157.23-.338.532-.532.834a.845.845 0 01-.06-.568c.015-.191.06-.379.133-.556.094-.169.221-.317.375-.435a2.388 2.388 0 01.495-.29c.132-.059.27-.104.411-.133.14-.025.283-.025.423 0 .131.031.257.08.375.145l.314.254c-.048.169-.048.169-.072.108z" fill="#242628"/><path d="M31.12 153.193a.854.854 0 00.08.369.855.855 0 00.232.299.859.859 0 00.338.17.844.844 0 00.377.008 6.822 6.822 0 011.729-.133.492.492 0 00.202-.015.511.511 0 00.18-.094.507.507 0 00.186-.35.689.689 0 00-.025-.349.697.697 0 00-.193-.292 2.418 2.418 0 00-.914-.564 2.406 2.406 0 00-1.068-.112c-1.16.193-1.124 1.063-1.124 1.063zm-2.865.907s.617.786-.677 1.39a19.361 19.361 0 00-2.562 1.668.798.798 0 01-.478.159.798.798 0 01-.477-.159.58.58 0 01-.193-.653 5.951 5.951 0 012.32-2.417c1.499-.689 2.067.012 2.067.012zm-4.496 8.776s-.133-10.396-4.593-9.175l-.846 5.476 2.586 3.493 2.853.206z" fill="#926350"/><path d="M25.197 164.629a7.55 7.55 0 00-1.788-2.079c-1.016-.786-2.297-1.391-3.264-.254-1.656 1.946 2.006 4.448 4.303 3.735a1.046 1.046 0 00.7-.527 1.038 1.038 0 00.05-.875z" fill="#FBB087"/><path d="M21.233 163.758c.203-.201.446-.357.713-.459a1.94 1.94 0 01.882-.073c.298.023.586.123.834.291.24.181.42.429.52.713-.302-.073-.532-.182-.762-.254-.23-.073-.399-.242-.628-.314a1.577 1.577 0 00-.701-.085 1.82 1.82 0 00-.738.242c-.133-.024-.133-.049-.12-.061z" fill="#EE896C"/><path d="M19.891 153.665s11.882-.762 13.936-7.181c0 0-8.183-1.607-13.054 3.53l-.882 3.651z" fill="#926350"/><path d="M120.141 302.083c0 1.982 12.087 3.626 27.074 3.626 14.988 0 27.087-1.607 27.087-3.626s-12.087-3.626-27.087-3.626c-14.999 0-27.074 1.607-27.074 3.626z" fill="#EBECED"/><path d="M225.358 312.588c9.234-.423 19.411-.448 28.597-1.209 4.183-.327 8.353-.701 12.535-1.016a56.136 56.136 0 006.357-.544c2.708-.241 2.954-1.116.738-2.623h-3.711c-6.72 0-14.118.943-20.874 1.318a262.465 262.465 0 01-32.284.338c-.424 0-.339-.326.096-.326 12.244-.073 24.295-.762 36.527-1.342 6.334-.302 12.824-.58 19.122-.435 2.175.06 4.955.181 5.62 1.209 1.68 2.623-11.99 2.901-15.217 3.167-12.087.979-19.473 1.729-31.705 2.164-.253 0-5.088-.085-4.834-.097l-.967-.604z" fill="#DEE1E2"/><path d="M129.302 293.621c-.483 1.874-2.538 2.043-4.218 2.297a62.075 62.075 0 00-7.252 1.426 16.658 16.658 0 00-3.626 1.064c-5.246 2.889-2.865 6.673 1.208 8.136 5.488 1.97 11.725 1.136 17.43 1.208 6.539.121 13.078.242 19.617.266l75.181.363a.39.39 0 01.274.113.39.39 0 01.113.274.388.388 0 01-.387.387c-29.516-.146-59.045 0-88.561-.557-6.358-.12-13.054.424-19.339-.423-2.974-.399-7.712-1.208-9.126-4.46-1.027-2.333.218-4.388 2.309-5.488a30.936 30.936 0 018.352-2.333c2.127-.435 6.986-.073 7.808-2.418 0-.133.242-.084.205 0l.012.145z" fill="#DEE1E2"/><path d="M133.158 294.83c-.169 1.451-3.421 2.889-4.436 3.627-2.417 1.547-6.757 3.759-7.578 6.721-2.587 9.247 51.72 6.926 55.902 6.962l54.5.375a.39.39 0 01.274.113.39.39 0 01.113.274.386.386 0 01-.113.273.387.387 0 01-.274.114c-17.272-.109-34.52-.194-51.793-.363-15.531-.157-31.365.774-46.813-1.209-3.094-.387-11.168-.834-12.449-4.835-.822-2.514 1.958-4.714 3.626-6.044a58.415 58.415 0 015.33-3.554c.786-.483 3.24-1.499 3.469-2.502 0-.121.218-.097.206 0l.036.048z" fill="#DEE1E2"/><path d="M168.392 292.412a19.253 19.253 0 002.26-7.962 19.242 19.242 0 00-1.294-8.175 19.802 19.802 0 00-5.705-8.003 21.767 21.767 0 00-7.759-3.783 19.142 19.142 0 00-14.432 1.668 20.429 20.429 0 00-7.929 9.235c-1.68 3.627-2.418 8.148-6.044 10.481-1.027.677-2.756.955-3.263 2.2-.605 1.487.495 2.961 1.088 4.243.701 1.535 1.39 3.07 2.091 4.593.495 1.1.979 2.998 2.308 3.409 1.33.411 2.623-.653 3.808-.979 3.13-.858 6.539.363 9.391 1.608a20.666 20.666 0 0010.25 1.91 18.778 18.778 0 008.988-3.22 18.784 18.784 0 006.242-7.225z" fill="#FFCE67"/><path d="M125.06 293.839s10.104-4.992 14.927-7.712a22.132 22.132 0 004.363-3.01c1.137-1.016 3.433-3.397 1.958-4.969-1.728-1.849-3.783 1.209-3.759 2.865a6.37 6.37 0 002.357 4.255 6.83 6.83 0 003.559.928 6.843 6.843 0 003.524-1.048 1.621 1.621 0 00.653-1.877 1.619 1.619 0 00-1.656-1.097c-1.559.109-5.971 3.409-4.956 6.044a5.951 5.951 0 003.01 3.155c2.418 1.209 5.548-1.886 2.152-2.974-2.418-.773-5.488.061-7.76.943-6.189 2.418-10.987 4.461-17.14 6.975" stroke="#fff" stroke-width=".42" stroke-miterlimit="10"/><path d="M128.64 299.612l-4.662-10.415-1.026.459 4.662 10.415 1.026-.459z" fill="#242628"/><path d="M124.383 302.276a.658.658 0 01.327-.304.66.66 0 01.447-.022h.096a.685.685 0 00.447-.022.691.691 0 00.339-.292l.085-.169a.653.653 0 01.342-.3.66.66 0 01.455-.003.654.654 0 00.453.003.654.654 0 00.345-.293l.254-.447a.6.6 0 000-.52l-4.641-10.359a.571.571 0 00-.166-.214.578.578 0 00-.245-.113l-.496-.121a.685.685 0 00-.446.076.682.682 0 00-.303.335.67.67 0 01-.308.339.662.662 0 01-.454.06h-.181a.666.666 0 00-.439.05.665.665 0 00-.311.313v.097a.647.647 0 01-.314.32.645.645 0 01-.447.042h-.145a.653.653 0 00-.453.052.656.656 0 00-.309.335v.061a1.208 1.208 0 000 .942l4.473 9.997a1.21 1.21 0 00.689.629h.072a.65.65 0 00.458-.008.66.66 0 00.34-.306l.036-.158z" fill="#DEE1E2"/><path d="M126.595 300.874h.085a.183.183 0 00.092-.103.181.181 0 00-.008-.139l-2.151-4.835a.198.198 0 00-.11-.093.19.19 0 00-.144.009.176.176 0 00-.092.103.179.179 0 00.007.138l2.152 4.836a.183.183 0 00.072.066c.03.015.064.021.097.018zm-3.118-7.023h.072a.193.193 0 00.095-.102.193.193 0 00.002-.14l-1.209-2.683a.181.181 0 00-.103-.093.186.186 0 00-.139.008.175.175 0 00-.063.037.171.171 0 00-.042.061.181.181 0 00-.012.073.177.177 0 00.021.071l1.208 2.671a.164.164 0 00.07.075c.03.018.065.025.1.022zm.435 4.146h.072a.175.175 0 00.06-.04.186.186 0 00.04-.06.194.194 0 00.013-.071.198.198 0 00-.016-.071l-3.13-6.999a.189.189 0 00-.106-.096.184.184 0 00-.142.006.187.187 0 00-.091.248l3.131 6.987a.179.179 0 00.169.096zm1.51 3.373h.073a.186.186 0 00.06-.04.187.187 0 00.039-.061.17.17 0 00.013-.071.187.187 0 00-.015-.07l-.919-2.067a.201.201 0 00-.109-.096.207.207 0 00-.145-.001.198.198 0 00-.093.11.19.19 0 00.009.144l.918 2.055a.178.178 0 00.071.073c.03.017.064.025.098.024zm-3.831-5.331h.072a.203.203 0 00.097-.109.207.207 0 000-.145l-1.68-3.735a.175.175 0 00-.04-.06.186.186 0 00-.06-.04.194.194 0 00-.071-.013.189.189 0 00-.071.016.205.205 0 00-.096.109.201.201 0 000 .145l1.68 3.735a.162.162 0 00.069.075c.03.018.065.025.1.022zm1.764 3.892h.073a.155.155 0 00.063-.037.16.16 0 00.042-.061.181.181 0 00.012-.073.188.188 0 00-.02-.07l-.665-1.499a.203.203 0 00-.109-.097.207.207 0 00-.145 0 .193.193 0 00-.095.102.193.193 0 00-.002.14l.677 1.511c.02.026.045.048.074.063a.21.21 0 00.095.021zm.666-4.871h.073a.186.186 0 00.06-.04.187.187 0 00.039-.061.17.17 0 00.013-.071.187.187 0 00-.015-.07l-.243-.544a.207.207 0 00-.108-.096.21.21 0 00-.146-.001.198.198 0 00-.093.11.194.194 0 00.008.144l.243.532a.162.162 0 00.069.075c.03.017.065.025.1.022z" fill="#242628"/><path d="M267.976 317.109c0 1.873-12.582 3.396-28.114 3.396s-28.102-1.523-28.102-3.396c0-1.874 12.582-3.397 28.102-3.397s28.114 1.523 28.114 3.397z" fill="#EBECED"/><path d="M228.016 309.167a37.112 37.112 0 00.182 3.916c.181 1.028 2.997.798 3.263.218a34.441 34.441 0 00-.096-5.355" fill="#FBB087"/><path d="M231.957 313.397a7.735 7.735 0 010 2.672c-.266.387-3.965.689-4.835.882-.874.15-1.763.19-2.647.121-2.296-.278-3.856-1.1-3.916-1.45-.266-1.475 4.339-1.076 7.397-4.134a.933.933 0 01.337.17c.1.079.183.177.243.289a1.66 1.66 0 001.729.87c.41-.069.787-.268 1.075-.568a1.208 1.208 0 01.617 1.148z" fill="#242628"/><path d="M252.372 228.913c1.209-.858 2.417-1.825 3.626-2.84 2.768-2.321 5.234-4.836 5.548-6.673.665-4.122.145-16.343-.181-22.109v-.979c-.327-5.452-3.252-7.87-4.726-8.764-.75 7.096-2.418 23.088-2.563 23.91-.217 1.064-1.704 17.455-1.704 17.455z" fill="#F5F7F8"/><path d="M251.925 307.656s.387 3.469.532 4.339c.145.871 2.961.701 3.251.218.173-1.517.205-3.047.097-4.569" fill="#FBB087"/><path d="M256.469 312.455c.204.871.249 1.772.133 2.659-.229.399-3.904.979-4.762 1.209-.857.217-1.738.327-2.623.326-2.309-.121-3.928-.822-4.013-1.209-.362-1.45 4.255-1.378 7.083-4.654a.938.938 0 01.605.424 1.632 1.632 0 001.788.737 2.575 2.575 0 001.209-.762 1.582 1.582 0 01.58 1.27z" fill="#242628"/><path d="M253.327 227.475l-13.465-.073 1.293 16.658.435 5.621s1.269 22.581 2.285 26.122c1.704 9.949 7.832 34.572 7.832 34.572a6.292 6.292 0 004.654-.278c-1.209-13.127 1.208-27.742-4.001-37.11.834-6.044 2.079-11.411 3.3-25.168.241-2.78 1.208-3.215 1.522-8.993.315-5.778-3.855-11.351-3.855-11.351z" fill="#2591CF"/><path d="M242.714 266.072a118.1 118.1 0 013.627-11.701 20.728 20.728 0 013.263-6.201c6.152-7.7.689-16.488.689-16.488s-5.113 5.052-5.463 5.56c-.351.508-2.188 4.557-3.626 6.818l.435 5.621s.471 7.821 1.075 16.391z" fill="#1675A5"/><path d="M250.329 227.499l-17.393.786s-4.738 37.147-4.472 44.243c.483 12.861-.822 37.715-.822 37.715a4.258 4.258 0 004.509.822s9.004-22.049 6.309-36.265c1.209-5.149 5.971-22.17 7.482-24.527 2.115-3.227 10.189-6.346 4.387-22.774z" fill="#2591CF"/><path d="M249.568 184.381a15.194 15.194 0 01-.544-5.682c.423-2.417 1.861-6.757 1.317-10.009-.544-3.251-4.641-5.971-8.98-5.548-4.34.423-5.609 4.581-6.334 6.999a24.786 24.786 0 00-.423 8.075 5.556 5.556 0 001.994 3.977c.726.423 3.445-.133 3.929.387.448 1.163.728 2.384.834 3.626" fill="#FBB087"/><path d="M251.611 186.968a5.52 5.52 0 00-.967-2.587c-.726-.677-5.548-.677-6.987-.496a22.172 22.172 0 00-5.487 2.2c-.472.351.459 2.176.459 2.176l12.982-1.293z" fill="#F5F7F8"/><path d="M232.622 224.574c-.218 1.886-1.874 6.515-.749 6.926 1.519.113 3.046.068 4.556-.133h.17c2.006-.169 4.29-.399 6.212-.544 7.663-.326 11.58-.495 12.353-.93.363-.218.375-.883.254-1.572a18.421 18.421 0 01-.121-5.089c.193-1.414.447-3.119.822-5.053 1.209-6.721 3.747-16.984 4.11-23.161.592-9.67-9.767-8.752-9.767-8.752-13.174-.822-19.339 2.974-20.088 8.643 0 .399-.085.835-.109 1.282-.338 5.85 1.438 15.279 2.284 22.315.199 2.016.223 4.047.073 6.068z" fill="#F5F7F8"/><path d="M232.622 224.574c-.218 1.886-1.874 6.515-.75 6.926 1.52.113 3.047.068 4.557-.133-2.03.145-2.417-3.118-1.958-4.17a14.96 14.96 0 001.305-6.238c-.096-2.804-1.148-9.138-1.776-15.122a49.479 49.479 0 010-10.48c-.315.64-1.209 1.523-3.771 2.115 0 5.875 1.547 14.506 2.332 21.021.195 2.022.216 4.056.061 6.081z" fill="#fff"/><path d="M198.996 220.972c-.302-.17 0-.52.314-.508h.254a8.896 8.896 0 01-1.076-.375c-.29-.157 0-.483.266-.52a3.527 3.527 0 01-.435-.169c-.375-.193 0-.544.314-.52l.58.133-.302-.121c-.302-.157-.072-.495.242-.495.221.032.439.08.653.145.338.084.713.133 1.051.217.326.08.657.137.991.17a4.257 4.257 0 001.741-.992l-1.148-.64s-.073-1.016 3.13.205c.484.182.894.834 1.209.919.401.051.805.071 1.208.06v2.817a6.649 6.649 0 00-2.03-.097c-.862.336-1.747.611-2.647.822-.45-.02-.897-.064-1.342-.133l-.955-.205-.906-.278-1.112-.435z" fill="#FBB087"/><path d="M207.227 221.516s5.028 1.136 9.102 1.897a39.53 39.53 0 009.802.798h.073c2.042-.084 4.75-.677 5.378-1.595a32.953 32.953 0 001.862-4.521c1.027-2.128 2.586-7.918 3.904-12.838a2.206 2.206 0 000-.23c.616-2.296 1.209-4.388 1.595-5.814a3.111 3.111 0 000-1.995 2.779 2.779 0 00-1.075-1.402c-1.378-.931-.955-2.272-2.418-1.354-.072 0-.918-.217-.979-.181a10.655 10.655 0 01-.302-5.258s-3.989 1.74-5.439 9.96c-.327 1.813-2.321 14.663-2.418 16.247v.338c0 .109 0 .194-.108.472v.314a15.339 15.339 0 00-3.88.375 126.455 126.455 0 01-14.722 1.547l-.266 2.538-.109.702z" fill="#F5F7F8"/><path d="M243.295 180.887l4.327-.326s2.079.568 3.094-3.131c1.015-3.699 2.575-13.889-.435-14.324a17.551 17.551 0 01-3.445-1.584c-1.511-.713-8.122-2.72-12.643-.496-4.52 2.225-.64 8.184 2.297 8.752 2.937.568 5.028 1.149 4.834 3.022-.193 1.874-2.731 7.35 1.971 8.087z" fill="#242628"/><path d="M543.511 83.686s-1.463 4.836-1.136 6.71c.326 1.873 3.626-.375 4.472-1.21.846-.834 2.635-2.695 2.695-3.553-.109-1.318-3.009-2.901-6.031-1.946z" fill="#FBB087"/><path d="M438.741 316.323c21.355 0 38.666-2.219 38.666-4.956 0-2.738-17.311-4.956-38.666-4.956-21.355 0-38.666 2.218-38.666 4.956 0 2.737 17.311 4.956 38.666 4.956z" fill="#EBECED"/><path d="M470.965 259.629h-8.304l2.853 2.805v29.797l-3.361 3.216h8.824a3.53 3.53 0 002.496-1.034 3.534 3.534 0 001.033-2.496v-28.758c0-.936-.372-1.834-1.033-2.496a3.53 3.53 0 00-2.496-1.034h-.012z" fill="#3F4142"/><path d="M449.885 299.073h-3.287v-3.832a1.063 1.063 0 00-.308-.756 1.052 1.052 0 00-.347-.23 1.063 1.063 0 00-.409-.078h-14.589a1.063 1.063 0 00-.756.308 1.052 1.052 0 00-.307.756v3.832h-3.324a1.07 1.07 0 00-.686.351 1.071 1.071 0 000 1.438c.177.198.421.323.686.351h23.327a1.075 1.075 0 00.962-1.07 1.075 1.075 0 00-.962-1.07z" fill="#242628"/><path d="M461.972 260.5h-49.206a4.52 4.52 0 00-4.52 4.521v24.998a4.52 4.52 0 004.52 4.521h49.206a4.52 4.52 0 004.521-4.521v-24.998a4.52 4.52 0 00-4.521-4.521z" fill="#F5F7F8"/><path d="M467.327 263.691v-.447a1.037 1.037 0 00-.06-.206v-.229c0-.073 0-.158-.097-.242a1.611 1.611 0 00-.06-.169l-.121-.266a.572.572 0 01-.061-.121l-.181-.29a.302.302 0 000-.085l-.218-.302a3.06 3.06 0 00-.278-.302 4.568 4.568 0 00-3.154-1.342h-51.249a4.57 4.57 0 00-3.155 1.342 3.06 3.06 0 00-.278.302l-.217.302a.302.302 0 000 .085l-.182.29a.568.568 0 01-.06.121l-.121.266a1.417 1.417 0 00-.061.169c0 .084-.072.169-.096.242a1.459 1.459 0 000 .229.977.977 0 00-.061.206c-.006.1-.006.201 0 .302a.586.586 0 010 .145v27.186a4.525 4.525 0 001.329 3.201 4.525 4.525 0 003.204 1.32h50.669a4.49 4.49 0 001.731-.341 4.492 4.492 0 001.469-.979 4.513 4.513 0 001.32-3.201V264.15a2.934 2.934 0 00-.012-.459zm-55.419 29.93a2.8 2.8 0 01-1.897-.749 3.518 3.518 0 01-.871-1.68V264.15c.007-.74.305-1.449.829-1.971a2.816 2.816 0 011.976-.821h50.874a2.792 2.792 0 012.792 2.792v27.09a3.439 3.439 0 01-.883 1.68 2.751 2.751 0 01-1.909.701h-50.911z" fill="#242628"/><path d="M456.992 265.734h-39.681a1.623 1.623 0 00-1.134.474c-.3.301-.471.708-.474 1.134v19.244a1.619 1.619 0 001.608 1.62h39.681a1.694 1.694 0 001.693-1.68v-19.1c0-.449-.179-.879-.496-1.196a1.69 1.69 0 00-1.197-.496z" fill="#242628"/><path d="M456.316 267.68h-28.9a.713.713 0 00-.713.713v1.415c0 .394.319.713.713.713h28.9a.713.713 0 00.713-.713v-1.415a.713.713 0 00-.713-.713zm.012 3.953h-13.743a.713.713 0 00-.713.713v12.173c0 .394.319.713.713.713h13.743a.713.713 0 00.713-.713v-12.173a.713.713 0 00-.713-.713zm-23.993 0h-4.919a.713.713 0 00-.713.713v4.787c0 .394.319.713.713.713h4.919a.713.713 0 00.713-.713v-4.787a.713.713 0 00-.713-.713zm7.494 0h-4.92a.713.713 0 00-.713.713v4.787c0 .394.32.713.713.713h4.92a.713.713 0 00.713-.713v-4.787a.713.713 0 00-.713-.713zm-7.494 7.362h-4.919a.713.713 0 00-.713.713v4.787c0 .394.319.713.713.713h4.919a.713.713 0 00.713-.713v-4.787a.713.713 0 00-.713-.713zm7.494 0h-4.92a.713.713 0 00-.713.713v4.787c0 .394.32.713.713.713h4.92a.713.713 0 00.713-.713v-4.787a.713.713 0 00-.713-.713z" fill="#3F4142"/><path d="M430.003 314.256h-.677a.689.689 0 01-.254-.055.685.685 0 01-.213-.148.666.666 0 01-.14-.219.655.655 0 01-.046-.255.646.646 0 01.072-.302l4.328-8.087a.664.664 0 01.243-.253.67.67 0 01.337-.098h9.488a.662.662 0 01.58.351l4.424 8.075a.656.656 0 01.056.508.664.664 0 01-.322.398.719.719 0 01-.314.085h-.532a.662.662 0 01-.338-.096.666.666 0 01-.242-.255l-3.868-6.975a.654.654 0 00-.58-.35h-7.252a.68.68 0 00-.345.101.698.698 0 00-.248.261l-3.626 6.939a.672.672 0 01-.218.255.672.672 0 01-.313.12z" fill="#2591CF"/><path d="M465.792 301.14h-57.655a2.031 2.031 0 000 4.062h57.655a2.031 2.031 0 000-4.062z" fill="#2591CF"/></svg>