<?xml version="1.0" encoding="UTF-8"?> <!-- Generator: Adobe Illustrator 21.0.2, SVG Export Plug-In . SVG Version: 6.00 Build 0) --> <svg xmlns="http://www.w3.org/2000/svg" xmlns:xlink="http://www.w3.org/1999/xlink" id="Layer_1" x="0px" y="0px" viewBox="0 0 349.3 333.3" style="enable-background:new 0 0 349.3 333.3;" xml:space="preserve"> <style type="text/css"> .st0{fill:#01405C;} .st1{fill:#00A6D2;} .st2{fill:#FED65C;} .st3{fill:#00CDC4;} .st4{fill:#FFFFFF;} .st5{fill:#E8E8E8;} </style> <g> <g> <path class="st0" d="M254.4,266.1H67.8V147.5c0-2.8,1.1-5.5,3.1-7.5c2-2,4.6-3.1,7.5-3.1h24.6v3.5H78.3c-1.9,0-3.6,0.7-5,2.1 c-1.3,1.4-2.1,3.2-2.1,5.1v115h179.7v-115c0-1.9-0.7-3.7-2.1-5.1c-1.3-1.4-3.1-2.1-5-2.1h-24.6v-3.5h24.6c2.8,0,5.5,1.1,7.5,3.1 c2,2,3.1,4.7,3.1,7.5V266.1z"></path> <path class="st0" d="M243.9,286.9H78.3c-2.8,0-5.5-1.1-7.5-3.1c-2-2-3.1-4.7-3.1-7.5v-13.7h186.7v13.7c0,2.9-1.1,5.5-3.1,7.5 C249.4,285.8,246.7,286.9,243.9,286.9z M71.3,266.1v10.2c0,1.9,0.7,3.7,2.1,5.1c1.3,1.4,3.1,2.1,5,2.1h165.6c1.9,0,3.7-0.7,5-2.1 c1.3-1.3,2.1-3.2,2.1-5.1v-10.2H71.3z"></path> <path class="st0" d="M190.2,323H132l4.8-39.6h48.5L190.2,323z M136,319.5h50.3l-4-32.6h-42.3L136,319.5z"></path> <rect x="152.8" y="273" class="st0" width="16.7" height="3.5"></rect> <polygon class="st0" points="202,328.2 198.5,328.2 198.5,323 123.7,323 123.7,328.2 120.2,328.2 120.2,319.5 202,319.5 "></polygon> <rect x="219.3" y="150.4" class="st1" width="21.8" height="102.1"></rect> <rect x="81.1" y="150.4" class="st1" width="21.8" height="102.1"></rect> </g> <g> <rect x="266.2" y="84.8" class="st2" width="32.1" height="243.5"></rect> <g> <rect x="290.9" y="106.6" class="st0" width="7.5" height="3.5"></rect> <rect x="290.9" y="114.4" class="st0" width="7.5" height="3.5"></rect> <rect x="290.9" y="122.3" class="st0" width="7.5" height="3.5"></rect> <rect x="290.9" y="130.1" class="st0" width="7.5" height="3.5"></rect> <rect x="290.9" y="138" class="st0" width="7.5" height="3.5"></rect> <rect x="290.9" y="145.8" class="st0" width="7.5" height="3.5"></rect> <rect x="290.9" y="153.7" class="st0" width="7.5" height="3.5"></rect> <rect x="290.9" y="161.6" class="st0" width="7.5" height="3.5"></rect> <rect x="290.9" y="169.4" class="st0" width="7.5" height="3.5"></rect> <rect x="290.9" y="177.3" class="st0" width="7.5" height="3.5"></rect> <rect x="290.9" y="185.1" class="st0" width="7.5" height="3.5"></rect> <rect x="290.9" y="193" class="st0" width="7.5" height="3.5"></rect> <rect x="290.9" y="200.8" class="st0" width="7.5" height="3.5"></rect> <rect x="290.9" y="208.7" class="st0" width="7.5" height="3.5"></rect> <rect x="290.9" y="216.5" class="st0" width="7.5" height="3.5"></rect> <rect x="290.9" y="224.4" class="st0" width="7.5" height="3.5"></rect> <rect x="290.9" y="232.2" class="st0" width="7.5" height="3.5"></rect> <rect x="290.9" y="240.1" class="st0" width="7.5" height="3.5"></rect> <rect x="290.9" y="247.9" class="st0" width="7.5" height="3.5"></rect> <rect x="290.9" y="255.8" class="st0" width="7.5" height="3.5"></rect> <rect x="290.9" y="263.7" class="st0" width="7.5" height="3.5"></rect> <rect x="290.9" y="271.5" class="st0" width="7.5" height="3.5"></rect> <rect x="290.9" y="279.4" class="st0" width="7.5" height="3.5"></rect> <rect x="290.9" y="287.2" class="st0" width="7.5" height="3.5"></rect> <rect x="290.9" y="295.1" class="st0" width="7.5" height="3.5"></rect> <rect x="290.9" y="302.9" class="st0" width="7.5" height="3.5"></rect> <rect x="290.9" y="310.8" class="st0" width="7.5" height="3.5"></rect> <rect x="290.9" y="318.6" class="st0" width="7.5" height="3.5"></rect> </g> <path class="st0" d="M282.3,101.7c-2.8,0-5.2-2.3-5.2-5.2c0-2.8,2.3-5.2,5.2-5.2c2.8,0,5.2,2.3,5.2,5.2 C287.5,99.4,285.2,101.7,282.3,101.7z M282.3,94.9c-0.9,0-1.7,0.7-1.7,1.7c0,0.9,0.7,1.7,1.7,1.7c0.9,0,1.7-0.7,1.7-1.7 C284,95.6,283.2,94.9,282.3,94.9z"></path> </g> <g> <rect x="312" y="169" class="st3" width="21.3" height="148.6"></rect> <g> <polygon class="st0" points="331.7,169.6 322.6,143.9 313.6,169.6 310.3,168.4 322.6,133.3 335,168.4 "></polygon> <rect x="319.3" y="145.9" class="st0" width="6.7" height="3.5"></rect> <path class="st0" d="M333.3,319.3H312c-0.5,0-0.9-0.2-1.2-0.5c-0.3-0.3-0.5-0.8-0.5-1.2l0-148.6c0-1,0.8-1.8,1.8-1.8h21.3 c0.5,0,0.9,0.2,1.2,0.5c0.3,0.3,0.5,0.8,0.5,1.2l0,148.6C335.1,318.5,334.3,319.3,333.3,319.3z M313.7,315.8h17.8l0-145.1h-17.8 L313.7,315.8z"></path> <path class="st0" d="M326.2,319.3C326.2,319.3,326.2,319.3,326.2,319.3l-7.1,0c-1,0-1.8-0.8-1.8-1.8l0-148.6c0-1,0.8-1.8,1.8-1.8 l7.1,0c0.5,0,0.9,0.2,1.2,0.5c0.3,0.3,0.5,0.8,0.5,1.2l0,148.6c0,0.5-0.2,0.9-0.5,1.2C327.1,319.1,326.7,319.3,326.2,319.3z M320.8,315.8l3.6,0l0-145.1l-3.6,0L320.8,315.8z"></path> <path class="st0" d="M335.1,330h-24.8l0-14.2l24.8,0L335.1,330z M313.7,326.5h17.8l0-7.2l-17.8,0L313.7,326.5z"></path> </g> </g> <g> <g> <rect x="27.3" y="228" class="st4" width="75.6" height="79.3"></rect> <path class="st5" d="M92.8,207H37.3c-5.6,0-10.1,4.5-10.1,10.1V228h75.6v-10.9C102.9,211.5,98.3,207,92.8,207z"></path> <rect x="57.7" y="215.7" class="st0" width="14.7" height="3.5"></rect> <path class="st5" d="M37.3,328.2h55.5c5.5,0,10.1-4.5,10.1-10.1v-10.9H27.3v10.9C27.3,323.7,31.8,328.2,37.3,328.2z"></path> <g> <g> <path class="st4" d="M75.1,317.7c0,1.8-1.8,3.4-4,3.4H59c-2.2,0-4-1.5-4-3.4c0-1.8,1.8-3.4,4-3.4h12.2 C73.3,314.4,75.1,315.9,75.1,317.7z"></path> </g> <path class="st0" d="M71.8,322.8H58.3c-2.8,0-5.1-2.3-5.1-5.1c0-2.8,2.3-5.1,5.1-5.1h13.4c2.8,0,5.1,2.3,5.1,5.1 C76.9,320.6,74.6,322.8,71.8,322.8z M58.3,316.1c-0.9,0-1.6,0.7-1.6,1.6c0,0.9,0.7,1.6,1.6,1.6h13.4c0.9,0,1.6-0.7,1.6-1.6 c0-0.9-0.7-1.6-1.6-1.6H58.3z"></path> </g> <path class="st0" d="M92.8,330H37.3c-6.5,0-11.8-5.3-11.8-11.8V217.1c0-6.5,5.3-11.8,11.8-11.8h55.5c6.5,0,11.8,5.3,11.8,11.8 v101.1C104.6,324.7,99.3,330,92.8,330z M37.3,208.7c-4.6,0-8.3,3.7-8.3,8.3v101.1c0,4.6,3.7,8.3,8.3,8.3h55.5 c4.6,0,8.3-3.7,8.3-8.3V217.1c0-4.6-3.7-8.3-8.3-8.3H37.3z"></path> <rect x="27.3" y="226.2" class="st0" width="75.6" height="3.5"></rect> <rect x="27.3" y="305.5" class="st0" width="75.6" height="3.5"></rect> </g> <g> <polygon class="st3" points="84,258.1 74.5,267.6 65.1,258.1 55.6,267.6 46.1,258.1 65.1,239.2 "></polygon> <polygon class="st1" points="84,277.1 65.1,296 46.1,277.1 55.6,267.6 65.1,277.1 74.5,267.6 "></polygon> <polygon class="st0" points="89,278.3 78.3,267.6 89,256.9 91.5,259.4 83.3,267.6 91.5,275.8 "></polygon> <polygon class="st0" points="41.1,278.3 38.6,275.8 46.8,267.6 38.6,259.4 41.1,256.9 51.8,267.6 "></polygon> <rect x="63.4" y="265.9" class="st0" width="3.4" height="3.5"></rect> </g> </g> <g> <g> <polygon class="st0" points="221.1,252.5 217.6,252.5 217.6,108.2 195.9,86.5 104.6,86.5 104.6,252.5 101.1,252.5 101.1,83 197.3,83 221.1,106.7 "></polygon> <polygon class="st0" points="219.3,109.2 194.9,109.2 194.9,84.8 198.4,84.8 198.4,105.7 219.3,105.7 "></polygon> </g> <g> <polygon class="st3" points="185.3,167.9 173.2,180 161.1,167.9 149,180 136.8,167.9 161.1,143.6 "></polygon> <polygon class="st1" points="185.3,192.1 161.1,216.4 136.8,192.1 149,180 161.1,192.1 173.2,180 "></polygon> <polygon class="st0" points="190.9,193.3 177.5,180 190.9,166.6 193.4,169.1 182.5,180 193.4,190.9 "></polygon> <polygon class="st0" points="131.3,193.3 128.8,190.9 139.7,180 128.8,169.1 131.3,166.6 144.6,180 "></polygon> <rect x="159.4" y="178.2" class="st0" width="3.4" height="3.5"></rect> </g> <g> <g> <g> <rect x="200.6" y="119.3" class="st0" width="1.8" height="3.5"></rect> <path class="st0" d="M197.1,122.8h-3.4v-3.5h3.4V122.8z M190.3,122.8h-3.4v-3.5h3.4V122.8z M183.4,122.8H180v-3.5h3.4V122.8z M176.5,122.8h-3.4v-3.5h3.4V122.8z M169.7,122.8h-3.4v-3.5h3.4V122.8z M162.8,122.8h-3.4v-3.5h3.4V122.8z M155.9,122.8h-3.4 v-3.5h3.4V122.8z M149.1,122.8h-3.4v-3.5h3.4V122.8z M142.2,122.8h-3.4v-3.5h3.4V122.8z M135.3,122.8h-3.4v-3.5h3.4V122.8z M128.5,122.8H125v-3.5h3.4V122.8z"></path> <rect x="119.8" y="119.3" class="st0" width="1.8" height="3.5"></rect> </g> <g> <rect x="114.7" y="233.8" class="st0" width="3.5" height="1.8"></rect> <path class="st0" d="M118.2,230.3h-3.5v-3.5h3.5V230.3z M118.2,223.4h-3.5v-3.5h3.5V223.4z M118.2,216.4h-3.5V213h3.5V216.4z M118.2,209.5h-3.5V206h3.5V209.5z M118.2,202.5h-3.5v-3.5h3.5V202.5z M118.2,195.6h-3.5v-3.5h3.5V195.6z M118.2,188.7h-3.5 v-3.5h3.5V188.7z M118.2,181.7h-3.5v-3.5h3.5V181.7z M118.2,174.8h-3.5v-3.5h3.5V174.8z M118.2,167.8h-3.5v-3.5h3.5V167.8z M118.2,160.9h-3.5v-3.5h3.5V160.9z M118.2,154h-3.5v-3.5h3.5V154z M118.2,147h-3.5v-3.5h3.5V147z M118.2,140.1h-3.5v-3.5h3.5 V140.1z M118.2,133.1h-3.5v-3.5h3.5V133.1z"></path> <rect x="114.7" y="124.4" class="st0" width="3.5" height="1.8"></rect> </g> <g> <rect x="204" y="233.8" class="st0" width="3.5" height="1.8"></rect> <path class="st0" d="M207.5,230.3H204v-3.5h3.5V230.3z M207.5,223.4H204v-3.5h3.5V223.4z M207.5,216.4H204V213h3.5V216.4z M207.5,209.5H204V206h3.5V209.5z M207.5,202.5H204v-3.5h3.5V202.5z M207.5,195.6H204v-3.5h3.5V195.6z M207.5,188.7H204v-3.5 h3.5V188.7z M207.5,181.7H204v-3.5h3.5V181.7z M207.5,174.8H204v-3.5h3.5V174.8z M207.5,167.8H204v-3.5h3.5V167.8z M207.5,160.9H204v-3.5h3.5V160.9z M207.5,154H204v-3.5h3.5V154z M207.5,147H204v-3.5h3.5V147z M207.5,140.1H204v-3.5h3.5 V140.1z M207.5,133.1H204v-3.5h3.5V133.1z"></path> <rect x="204" y="124.4" class="st0" width="3.5" height="1.8"></rect> </g> <g> <rect x="200.6" y="237.2" class="st0" width="1.8" height="3.5"></rect> <path class="st0" d="M197.1,240.7h-3.4v-3.5h3.4V240.7z M190.3,240.7h-3.4v-3.5h3.4V240.7z M183.4,240.7H180v-3.5h3.4V240.7z M176.5,240.7h-3.4v-3.5h3.4V240.7z M169.7,240.7h-3.4v-3.5h3.4V240.7z M162.8,240.7h-3.4v-3.5h3.4V240.7z M155.9,240.7h-3.4 v-3.5h3.4V240.7z M149.1,240.7h-3.4v-3.5h3.4V240.7z M142.2,240.7h-3.4v-3.5h3.4V240.7z M135.3,240.7h-3.4v-3.5h3.4V240.7z M128.5,240.7H125v-3.5h3.4V240.7z"></path> <rect x="119.8" y="237.2" class="st0" width="1.8" height="3.5"></rect> </g> </g> <g> <path class="st0" d="M121.6,126.2h-10.3v-10.3h10.3V126.2z M114.8,122.7h3.3v-3.3h-3.3V122.7z"></path> <path class="st0" d="M210.9,126.2h-10.3v-10.3h10.3V126.2z M204.1,122.7h3.3v-3.3h-3.3V122.7z"></path> <path class="st0" d="M121.6,244.1h-10.3v-10.3h10.3V244.1z M114.8,240.6h3.3v-3.3h-3.3V240.6z"></path> <path class="st0" d="M210.9,244.1h-10.3v-10.3h10.3V244.1z M204.1,240.6h3.3v-3.3h-3.3V240.6z"></path> </g> </g> <g> <rect x="114.8" y="98.9" class="st0" width="19.3" height="3.5"></rect> <rect x="114.8" y="105.7" class="st0" width="38.8" height="3.5"></rect> </g> </g> <g> <rect x="38.2" y="125.7" class="st5" width="25.2" height="12.9"></rect> <g> <path class="st0" d="M81.2,76.6c-1.4-14.4-12.9-25.9-27.3-27.3l0.4-3.5c16,1.6,28.9,14.4,30.5,30.5L81.2,76.6z"></path> <path class="st0" d="M40,125.7h-3.5v-2.8c0-6.7-2.7-12.8-7.6-17.3c-0.1-0.1-0.3-0.3-0.5-0.4l-0.5-0.4 C21.7,99.1,17.8,91.4,17,83.1l3.5-0.3c0.7,7.5,4.2,14.4,9.8,19.5l0.4,0.3c0.2,0.1,0.4,0.3,0.5,0.5c5.6,5.1,8.8,12.4,8.8,19.9 V125.7z"></path> <path class="st0" d="M20.5,76.6L17,76.2c1.6-16,14.4-28.8,30.4-30.5l0.4,3.5C33.4,50.7,21.9,62.2,20.5,76.6z"></path> <path class="st0" d="M65.2,125.7h-3.5v-2.8c0-7.5,3.2-14.8,8.8-19.9l1-0.8c5.5-5.1,9-12,9.8-19.5l3.5,0.3 c-0.8,8.3-4.7,16.1-10.9,21.7l-0.9,0.8c-4.8,4.4-7.6,10.7-7.6,17.3V125.7z"></path> </g> <rect x="35.2" y="123.9" class="st0" width="31.3" height="3.5"></rect> <rect x="35.2" y="136.8" class="st0" width="31.3" height="3.5"></rect> <rect x="35.2" y="130.4" class="st0" width="31.3" height="3.5"></rect> <rect x="43.9" y="143.3" class="st0" width="13.8" height="3.5"></rect> <path class="st2" d="M27.8,79.7c0,12.7,10.3,23.1,23.1,23.1c12.7,0,23.1-10.3,23.1-23.1c0-12.7-10.3-23.1-23.1-23.1 C38.1,56.6,27.8,66.9,27.8,79.7z"></path> <rect x="45.9" y="79.7" class="st0" width="3.5" height="46"></rect> <rect x="52.3" y="79.7" class="st0" width="3.5" height="46"></rect> <rect x="41.6" y="77.9" class="st0" width="18.4" height="3.5"></rect> <g> <path class="st0" d="M88.1,84.6h-10v-10h10V84.6z M81.6,81.1h3v-3h-3V81.1z"></path> <path class="st0" d="M23.5,84.6h-10v-10h10V84.6z M17.1,81.1h3v-3h-3V81.1z"></path> <path class="st0" d="M55.8,52.3h-10v-10h10V52.3z M49.4,48.8h3v-3h-3V48.8z"></path> </g> <g> <rect x="49.1" y="205.2" class="st0" width="3.5" height="1.8"></rect> <path class="st0" d="M52.6,201.8h-3.5v-3.4h3.5V201.8z M52.6,194.9h-3.5v-3.4h3.5V194.9z M52.6,188h-3.5v-3.4h3.5V188z M52.6,181.2h-3.5v-3.4h3.5V181.2z M52.6,174.3h-3.5v-3.4h3.5V174.3z M52.6,167.4h-3.5V164h3.5V167.4z M52.6,160.5h-3.5v-3.4h3.5 V160.5z M52.6,153.7h-3.5v-3.4h3.5V153.7z"></path> <rect x="49.1" y="145.1" class="st0" width="3.5" height="1.8"></rect> </g> </g> <g> <g> <g> <rect x="248.3" y="36.1" class="st0" width="1.8" height="3.5"></rect> <path class="st0" d="M244.7,39.6H241v-3.5h3.6V39.6z M237.4,39.6h-3.6v-3.5h3.6V39.6z M230.2,39.6h-3.6v-3.5h3.6V39.6z"></path> <rect x="221.2" y="36.1" class="st0" width="1.8" height="3.5"></rect> </g> <g> <rect x="248.3" y="72.3" class="st0" width="1.8" height="3.5"></rect> <path class="st0" d="M244.7,75.8H241v-3.5h3.6V75.8z M237.4,75.8h-3.6v-3.5h3.6V75.8z M230.2,75.8h-3.6v-3.5h3.6V75.8z"></path> <rect x="221.2" y="72.3" class="st0" width="1.8" height="3.5"></rect> </g> <g> <rect x="215.8" y="68.6" class="st0" width="3.5" height="1.8"></rect> <path class="st0" d="M219.3,65h-3.5v-3.6h3.5V65z M219.3,57.8h-3.5v-3.6h3.5V57.8z M219.3,50.5h-3.5v-3.6h3.5V50.5z"></path> <rect x="215.8" y="41.5" class="st0" width="3.5" height="1.8"></rect> </g> <g> <rect x="251.9" y="68.6" class="st0" width="3.5" height="1.8"></rect> <path class="st0" d="M255.4,65h-3.5v-3.6h3.5V65z M255.4,57.8h-3.5v-3.6h3.5V57.8z M255.4,50.5h-3.5v-3.6h3.5V50.5z"></path> <rect x="251.9" y="41.5" class="st0" width="3.5" height="1.8"></rect> </g> </g> <g> <path class="st0" d="M222.9,43.3h-10.7V32.5h10.7V43.3z M215.7,39.8h3.7V36h-3.7V39.8z"></path> <path class="st0" d="M259,43.3h-10.7V32.5H259V43.3z M251.8,39.8h3.7V36h-3.7V39.8z"></path> <path class="st0" d="M222.9,79.4h-10.7V68.6h10.7V79.4z M215.7,75.9h3.7v-3.7h-3.7V75.9z"></path> <path class="st0" d="M259,79.4h-10.7V68.6H259V79.4z M251.8,75.9h3.7v-3.7h-3.7V75.9z"></path> </g> <rect x="226.8" y="47.2" class="st5" width="17.5" height="17.5"></rect> </g> <g> <circle class="st1" cx="301.7" cy="46.3" r="19.4"></circle> <path class="st0" d="M319.2,83.2c-10.7,0-19.5-8.7-19.5-19.5c0-10.7,8.7-19.5,19.5-19.5c10.7,0,19.5,8.7,19.5,19.5 C338.6,74.5,329.9,83.2,319.2,83.2z M319.2,47.8c-8.8,0-16,7.2-16,16s7.2,16,16,16c8.8,0,16-7.2,16-16S328,47.8,319.2,47.8z"></path> </g> <g> <path class="st3" d="M176,27.8c0,12.8-10.4,23.3-23.3,23.3c-12.8,0-23.3-10.4-23.3-23.3c0-12.9,10.4-23.3,23.3-23.3 C165.6,4.5,176,14.9,176,27.8z"></path> <g> <path class="st0" d="M152.8,35.4c-4.2,0-7.6-3.4-7.6-7.6c0-4.2,3.4-7.6,7.6-7.6c4.2,0,7.6,3.4,7.6,7.6 C160.4,32,157,35.4,152.8,35.4z M152.8,23.7c-2.3,0-4.1,1.8-4.1,4.1c0,2.3,1.8,4.1,4.1,4.1c2.3,0,4.1-1.8,4.1-4.1 C156.9,25.5,155,23.7,152.8,23.7z"></path> <path class="st0" d="M149.2,60.9c-7.5-0.8-14.6-4.2-20-9.6l2.5-2.5c4.8,4.8,11.2,7.8,17.9,8.5L149.2,60.9z"></path> <path class="st0" d="M156.3,60.9l-0.4-3.5c6.8-0.7,13-3.7,17.9-8.5l2.5,2.5C171,56.7,163.8,60.1,156.3,60.9z"></path> <g> <rect x="121.3" y="52.4" transform="matrix(0.322 -0.9467 0.9467 0.322 45.9815 172.5112)" class="st0" width="44.3" height="3.5"></rect> <rect x="160.4" y="32" transform="matrix(0.9467 -0.3221 0.3221 0.9467 -8.8031 55.0942)" class="st0" width="3.5" height="44.3"></rect> </g> <rect x="151" y="14.6" class="st0" width="3.5" height="7.3"></rect> </g> <path class="st0" d="M157.9,64.5h-10.3V54.2h10.3V64.5z M151.1,61h3.3v-3.3h-3.3V61z"></path> </g> <g> <path class="st5" d="M29.2,174.5c0,3.8-3.1,6.8-6.8,6.8c-3.8,0-6.9-3.1-6.9-6.8c0-3.8,3.1-6.8,6.9-6.8 C26.1,167.7,29.2,170.7,29.2,174.5z"></path> <path class="st0" d="M22.4,189.7c-8.4,0-15.3-6.8-15.3-15.2c0-8.4,6.8-15.3,15.3-15.3c8.4,0,15.2,6.8,15.2,15.3 C37.6,182.9,30.8,189.7,22.4,189.7z M22.4,162.7c-6.5,0-11.8,5.3-11.8,11.8c0,6.5,5.3,11.7,11.8,11.7c6.5,0,11.7-5.3,11.7-11.7 C34.1,168,28.8,162.7,22.4,162.7z"></path> <g> <rect x="20.6" y="155.6" class="st0" width="3.5" height="5.4"></rect> <rect x="12.5" y="157.7" transform="matrix(0.866 -0.5 0.5 0.866 -78.3139 28.6265)" class="st0" width="3.5" height="5.4"></rect> <rect x="6.6" y="163.7" transform="matrix(0.4985 -0.8669 0.8669 0.4985 -140.0636 90.6643)" class="st0" width="3.5" height="5.4"></rect> <rect x="3.5" y="172.7" class="st0" width="5.4" height="3.5"></rect> <rect x="5.6" y="180.9" transform="matrix(0.8662 -0.4998 0.4998 0.8662 -90.1412 28.6016)" class="st0" width="5.4" height="3.5"></rect> <rect x="11.6" y="186.8" transform="matrix(0.4994 -0.8664 0.8664 0.4994 -156.1964 106.7318)" class="st0" width="5.4" height="3.5"></rect> <rect x="20.6" y="188" class="st0" width="3.5" height="5.4"></rect> <rect x="28.7" y="185.8" transform="matrix(0.8653 -0.5012 0.5012 0.8653 -90.3849 40.6542)" class="st0" width="3.5" height="5.4"></rect> <rect x="34.7" y="179.9" transform="matrix(0.5001 -0.866 0.866 0.5001 -139.9219 122.8132)" class="st0" width="3.5" height="5.4"></rect> <rect x="35.9" y="172.7" class="st0" width="5.4" height="3.5"></rect> <rect x="33.7" y="164.6" transform="matrix(0.8663 -0.4996 0.4996 0.8663 -78.2518 40.4398)" class="st0" width="5.4" height="3.5"></rect> <rect x="27.8" y="158.7" transform="matrix(0.5017 -0.865 0.865 0.5017 -123.6188 106.304)" class="st0" width="5.4" height="3.5"></rect> </g> </g> <g> <rect x="15.3" y="326.5" class="st0" width="329.9" height="3.5"></rect> </g> </g> <g> </g> <g> </g> <g> </g> <g> </g> <g> </g> <g> </g> </svg> 